<?xml version="1.0" encoding="UTF-8" standalone="no"?>
<svg
   xmlns:dc="http://purl.org/dc/elements/1.1/"
   xmlns:cc="http://creativecommons.org/ns#"
   xmlns:rdf="http://www.w3.org/1999/02/22-rdf-syntax-ns#"
   xmlns:svg="http://www.w3.org/2000/svg"
   xmlns="http://www.w3.org/2000/svg"
   xmlns:sodipodi="http://sodipodi.sourceforge.net/DTD/sodipodi-0.dtd"
   xmlns:inkscape="http://www.inkscape.org/namespaces/inkscape"
   viewBox="0 0 1024 640"
   id="svg3336"
   version="1.1"
   inkscape:version="0.91 r13725"
   sodipodi:docname="motherboard-152501.svg">
  <metadata
     id="metadata3344">
    <rdf:RDF>
      <cc:Work
         rdf:about="">
        <dc:format>image/svg+xml</dc:format>
        <dc:type
           rdf:resource="http://purl.org/dc/dcmitype/StillImage" />
      </cc:Work>
    </rdf:RDF>
  </metadata>
  <defs
     id="defs3342" />
  <sodipodi:namedview
     pagecolor="#ffffff"
     bordercolor="#666666"
     borderopacity="1"
     objecttolerance="10"
     gridtolerance="10"
     guidetolerance="10"
     inkscape:pageopacity="0"
     inkscape:pageshadow="2"
     inkscape:window-width="1855"
     inkscape:window-height="1056"
     id="namedview3340"
     showgrid="false"
     inkscape:zoom="0.71796875"
     inkscape:cx="923.29567"
     inkscape:cy="250.81853"
     inkscape:window-x="65"
     inkscape:window-y="24"
     inkscape:window-maximized="1"
     inkscape:current-layer="svg3336" />
  <path d="m 824.65,602.47546 0,12.2126 12.2,0 0,-4.5 21.925,0 10.53752,10.525 0.62496,0.625 0.86252,0 28.3,0 c 0.68364,0.5377 1.53588,0.8625 2.475,0.8625 2.23932,0 4.06248,-1.8166 4.06248,-4.0501 0,-2.2393 -1.82316,-4.0624 -4.06248,-4.0624 -1.85504,0 -3.40224,1.2544 -3.875,2.9624 l -26.025,0 -10.5,-10.4875 -0.625,-0.65 -0.88748,0 -22.81252,0 0,-3.4375 -12.2,0 z" id="path3388" style="fill:#00aaaa" />
  <path d="m 768.15,5e-4 0,122.12496 -16.625,16.6 -0.2,0.2 0,0.3125 0,9.075 c -0.2204,-0.042 -0.4422,-0.075 -0.675,-0.075 -1.98472,0 -3.58748,1.6028 -3.58748,3.5875 0,1.9847 1.60276,3.6125 3.58748,3.6125 1.98472,0 3.58748,-1.6278 3.58748,-3.6125 0,-1.2008 -0.58448,-2.2616 -1.48748,-2.9125 l 0,-9.4 16.625,-16.6 0.2,-0.225 0,-0.2875 0,-122.39996 -1.425,0 z" id="path4222" style="fill:#00aaaa" />
  <path d="m 408.01252,189.15146 c -1.72592,0 -3.125,1.4241 -3.125,3.15 0,1.7259 1.39908,3.1125 3.125,3.1125 1.72592,0 3.11248,-1.3865 3.11248,-3.1125 0,-1.726 -1.3866,-3.15 -3.11248,-3.15 z" id="path4026" style="fill:#00aaaa" />
  <path d="m 727.56252,347.25046 c -1.98596,0 -3.6,1.6016 -3.6,3.5875 0,1.9859 1.61404,3.6125 3.6,3.6125 1.98596,0 3.58748,-1.6265 3.58748,-3.6125 0,-1.986 -1.60148,-3.5875 -3.58748,-3.5875 z" id="path3780" style="fill:#00aaaa" />
  <path d="m 705.125,622.17556 c -4.14064,0 -7.5,3.3737 -7.5,7.5125 0,4.1388 3.35936,7.4875 7.5,7.4875 4.14064,0 7.51248,-3.3436 7.51248,-7.4875 0,-4.1439 -3.36876,-7.5125 -7.51248,-7.5125 z" id="path3360" style="fill:#00aaaa" />
  <path d="m 955.61252,131.51346 c -6.1508,0 -11.13752,4.9617 -11.13752,11.1125 0,6.1508 4.98672,11.15 11.13752,11.15 6.1508,0 11.13748,-4.9991 11.13748,-11.15 0,-6.1509 -4.98672,-11.1125 -11.13748,-11.1125 z" id="path4086" style="fill:#00aaaa" />
  <path d="m 8.9,95.85046 c -1.72591,0 -3.125,1.3991 -3.125,3.125 0,1.7259 1.39909,3.125 3.125,3.125 1.72591,0 3.1125,-1.399 3.1125,-3.125 0,-1.726 -1.38659,-3.125 -3.1125,-3.125 z" id="path4106" style="fill:#00aaaa" />
  <path d="m 300.2125,5e-4 27.625,27.625 0,30.19996 0,0.3 0.2,0.2125 53.5,53.5 0,16.175 c -0.84415,0.5577 -1.4,1.5102 -1.4,2.6 0,1.726 1.38658,3.15 3.1125,3.15 1.72592,0 3.125,-1.424 3.125,-3.15 0,-1.726 -1.39909,-3.1125 -3.125,-3.1125 -0.0998,0 -0.19008,0.016 -0.2875,0.025 l 0,-15.9875 0,-0.2875 -0.2,-0.2 -53.5,-53.5 0,-30.23746 0,-0.2875 -0.225,-0.2 -26.8125,-26.825 -2.0125,0 z" id="path4332" style="fill:#00aaaa" />
  <path d="m 320.8375,300.67646 c -2.1042,0 -3.8125,1.7083 -3.8125,3.8125 0,0.9892 0.3818,1.8852 1,2.5625 l -2.875,2.875 -9.425,0 -0.2875,0 -0.225,0.225 -2.45,2.45 -0.225,0.2 0,0.3125 0,5.775 -3.65,3.65 -32.8,0 -0.2875,0 -0.225,0.2 -79.725,79.7375 -0.2,0.2 0,0.2876 0,7.15 c -1.74698,0.3469 -3.075,1.8886 -3.075,3.7374 0,2.1042 1.7083,3.8126 3.8125,3.8126 2.1042,0 3.8,-1.7084 3.8,-3.8126 0,-1.864 -1.344,-3.4076 -3.1125,-3.7374 l 0,-6.8376 79.3,-79.3125 32.8,0 0.3125,0 0.2,-0.225 4.0875,-4.075 0.2,-0.2 0,-0.2875 0,-5.775 2.0625,-2.05 9.4125,0 0.2875,0 0.225,-0.2 3.2,-3.225 c 0.50192,0.2435 1.07978,0.375 1.675,0.375 2.1042,0 3.8125,-1.7083 3.8125,-3.8125 0,-2.1042 -1.7083,-3.8125 -3.8125,-3.8125 z" id="path3844" style="fill:#00aaaa" />
  <path d="m 827,22.038 c -1.98472,0 -3.58748,1.60279 -3.58748,3.5875 0,1.98471 1.60276,3.5875 3.58748,3.5875 1.98472,0 3.6,-1.60279 3.6,-3.5875 0,-1.98471 -1.61532,-3.5875 -3.6,-3.5875 z" id="path4162" style="fill:#00aaaa" />
  <path d="m 791.125,107.03796 c -1.81208,0.1841 -3.21248,1.7269 -3.21248,3.5875 0,1.3974 0.79964,2.5949 1.96248,3.1875 l 0,9.1625 0,0.575 0.425,0.425 7.63748,7.6625 0,26.2125 -6.28748,6.275 -50.825,0 -0.575,0 -0.425,0.425 -23.06248,23.0625 -24.76252,0 -0.6,0 -0.4,0.425 -33.85,33.85 -51.375,0 -0.61248,0 -0.41252,0.425 -13.46252,13.4625 -15.97496,0 -0.58752,0 -0.41248,0.425 -2.83752,2.825 c -0.16944,-0.028 -0.33484,-0.062 -0.51248,-0.062 -1.72596,0 -3.11252,1.3866 -3.11252,3.1125 0,1.7259 1.3866,3.125 3.11252,3.125 1.72592,0 3.12496,-1.399 3.12496,-3.125 0,-0.4719 -0.12576,-0.9119 -0.31248,-1.3125 l 2.13752,-2.1375 15.95,0 0.6,0 0.4,-0.4 13.48748,-13.4875 51.38748,0 0.6,0 0.4,-0.425 33.87504,-33.8375 24.72496,0 0.6,0 0.42504,-0.4125 23.06248,-23.075 50.81248,0 0.57504,0 0.42496,-0.4 7.15,-7.1625 0.4,-0.4 0,-0.6 0,-27.3875 0,-0.575 -0.4,-0.425 -7.66248,-7.6375 0,-8.4 c 1.3822,-0.4985 2.36248,-1.8194 2.36248,-3.375 0,-1.9847 -1.59808,-3.5875 -3.58748,-3.5875 -0.12392,0 -0.25428,-0.012 -0.375,0 z" id="path4104" style="fill:#00aaaa" />
  <path d="m 809.525,374.37546 c -1.81212,0.1841 -3.225,1.7269 -3.225,3.5875 0,0.2252 0.0228,0.424 0.0625,0.6375 l -3.7,3.7 -0.53752,0.5375 0,0.7375 0,22.9 0,0.7376 0.53752,0.5124 11.16248,11.1876 0.53752,0.5124 0.73748,0 13.925,0 0.73752,0 0.52496,-0.5124 16.31252,-16.3126 4.5,0 0,-12.325 -12.13748,0 0,12.325 2.6,0 -13.25,13.2626 -12.5,0 -10.12504,-10.1376 0,-21.4125 2.98752,-2.9875 c 0.37728,0.1344 0.78856,0.225 1.21248,0.225 1.98476,0 3.6,-1.6027 3.6,-3.5875 0,-1.9848 -1.61524,-3.5875 -3.6,-3.5875 -0.12404,0 -0.24168,-0.012 -0.36248,0 z" id="path3718" style="fill:#00aaaa" />
  <path d="m 634.2,572.60046 c -2.19876,0 -3.98748,1.7637 -3.98748,3.9625 0,2.1988 1.78872,3.9875 3.98748,3.9875 2.03788,0 3.69176,-1.537 3.925,-3.5124 l 5.18752,0 3.47496,3.4749 0,7.6875 -6.36248,6.35 -0.2,0.225 0,0.2875 0,30.1001 0,0.3125 0.2,0.2 14.325,14.325 2.01252,0 -15.11252,-15.1 0,-29.5501 6.35,-6.35 0.225,-0.2 0,-0.3124 0,-8.2876 0,-0.2875 -0.225,-0.2 -3.875,-3.8875 -0.21248,-0.2125 -0.3,0 -5.57504,0 c -0.4274,-1.7302 -1.97072,-3.0125 -3.83748,-3.0125 z" id="path3416" style="fill:#00aaaa" />
  <path d="m 544.11252,5e-4 0,30.675 -15.26252,0 -1.075,0 0,1.075 0,57.74996 -14.98752,15.025 -0.31248,0.3125 0,0.45 0,44.25 0,0.425 0.31248,0.3125 4.21252,4.2125 c -0.18616,0.398 -0.3,0.8446 -0.3,1.3125 0,1.7259 1.42412,3.1375 3.15,3.1375 1.72588,0 3.11252,-1.4116 3.11252,-3.1375 0,-1.7259 -1.3866,-3.125 -3.11252,-3.125 -0.47748,0 -0.93088,0.1217 -1.33748,0.3125 l -3.9,-3.9 0,-43.3875 15,-14.9875 0.3,-0.3125 0,-0.45 0,-57.13746 15.27496,0 1.06252,0 0,-1.0625 0,-31.75 -2.13748,0 z" id="path4284" style="fill:#00aaaa" />
  <path d="m 810.975,5e-4 0,90.79996 0,0.3125 0.2,0.2 19.05,19.05 0,37.2375 -5.775,5.7625 -0.2,0.2 0,0.3 0,110.9625 0,0.2875 0.2,0.2 5.48748,5.5125 0,29.3375 -26.78748,26.7875 -23.68748,0 -0.28752,0 -0.225,0.2 -19.73748,19.7625 -0.22504,0.2 0,0.3 0,13.0125 -7.15,7.15 -24.56248,0 -16.775,-16.8 -0.225,-0.2 -0.28752,0 -53.9,0 -0.28748,0 -0.225,0.2 -13.91248,13.9 c -0.47784,-0.2617 -0.99856,-0.425 -1.57504,-0.425 -1.87236,0 -3.38748,1.5672 -3.38748,3.5 0,1.9328 1.51512,3.5 3.38748,3.5 1.87236,0 3.41252,-1.5672 3.41252,-3.5 0,-0.8108 -0.28524,-1.5443 -0.73748,-2.1375 l 13.58748,-13.6125 53.35,0 16.8,16.8 0.225,0.2 0.28752,0 25.11248,0 0.28752,0 0.2,-0.2 7.6,-7.6 0.2,-0.2 0,-0.2875 0,-12.9875 19.33748,-19.35 23.68748,0 0.31252,0 0.2,-0.225 27.21252,-27.175 0.2,-0.2 0,-0.3125 0,-29.95 0,-0.2875 -0.2,-0.225 -5.48752,-5.4625 0,-110.3875 5.775,-5.775 0.2,-0.2 0,-0.3125 0,-37.7875 0,-0.2875 -0.2,-0.225 -19.05,-19.0375 0,-90.52496 -1.425,0 z" id="path4204" style="fill:#00aaaa" />
  <path d="m 854.45,5e-4 15.125,14.325 0,352.93746 -8.975,8.975 -30.2,0 -0.43748,0 -0.31252,0.3125 -7.08748,7.0875 -0.31252,0.3125 0,0.45 0,3.05 c -1.8214,0.173 -3.25,1.6942 -3.25,3.5625 0,1.9848 1.60272,3.5875 3.58748,3.5875 1.98476,0 3.58752,-1.6027 3.58752,-3.5875 0,-1.3244 -0.72248,-2.4785 -1.78752,-3.1 l 0,-3.075 6.46252,-6.45 30.18748,0 0.45,0 0.31252,-0.3125 9.6,-9.6125 0.31252,-0.3375 0,-0.4125 0,-353.86246 0,-0.4625 -0.32504,-0.3125 -13.82496,-13.075 -3.11252,0 z" id="path4198" style="fill:#00aaaa" />
  <path d="m 209.425,31.613 c -1.72592,0 -3.15,1.41159 -3.15,3.1375 0,1.72591 1.42408,3.125 3.15,3.125 0.4902,0 0.95022,-0.13696 1.3625,-0.3375 l 4.275,4.28746 0,4.5125 0,0.45 0.3125,0.3125 7.35,7.3375 0.3125,0.3 0.45,0 5.925,0 0.45,0 0.3,-0.3 8.1,-8.075 13.225,0 75.05,75.05 0,27.5375 0,0.45 0.3125,0.3125 3.75,3.75 c -0.37287,0.5165 -0.6,1.1441 -0.6,1.825 0,1.7259 1.41158,3.1125 3.1375,3.1125 1.72592,0 3.125,-1.3866 3.125,-3.1125 0,-1.7259 -1.39909,-3.15 -3.125,-3.15 -0.25682,0 -0.49805,0.053 -0.7375,0.1125 l -3.7125,-3.7375 0,-27.55 0,-0.4375 -0.3125,-0.3125 -75.675,-75.675 -0.3125,-0.3125 -0.45,0 -14.125,0 -0.45,0 -0.3125,0.3125 -8.0875,8.0625 -5.0375,0 -6.725,-6.7 0,-4.525 0,-0.45 -0.3125,-0.3125 -4.6125,-4.61246 c 0.16542,-0.381 0.2625,-0.80739 0.2625,-1.25 0,-1.72591 -1.38659,-3.1375 -3.1125,-3.1375 z" id="path4158" style="fill:#00aaaa" />
  <path d="m 0,614.41296 0,3.0125 22.575,22.5751 3.0125,0 L 0,614.41296 Z" id="path3364" style="fill:#00aaaa" />
  <path d="m 807.9,5e-4 0,93.51246 0,0.2875 0.2,0.225 18.65,18.65 0,34.45 -4.525,4.525 -0.225,0.225 0,0.2875 0,114.85 0,0.2875 0.225,0.225 5.06248,5.0625 0,26.5125 -25.38748,25.375 -24.4,0 -0.28748,0 -0.2,0.2 -20.32504,20.325 -0.2,0.2 0,0.2875 0,13.95 -6.07496,6.0875 -21.72504,0 -16.85,-16.85 -0.2,-0.2 -0.28748,0 -63.55,0 -0.3,0 -0.2,0.2 -6.325,6.3375 c -0.48104,-0.2708 -1.01288,-0.45 -1.6,-0.45 -1.87236,0 -3.38752,1.5672 -3.38752,3.5 0,1.9328 1.51516,3.5 3.38752,3.5 1.87236,0 3.38752,-1.5672 3.38752,-3.5 0,-0.801 -0.27468,-1.5354 -0.71252,-2.125 l 6.06252,-6.0375 62.92496,0 16.83752,16.85 0.2,0.2 0.31248,0 22.31252,0 0.28748,0 0.22504,-0.2 6.48748,-6.5125 0.21252,-0.2 0,-0.3125 0,-13.9375 19.88748,-19.8875 24.4,0 0.28748,0 0.22504,-0.2125 25.77496,-25.7875 0.22504,-0.2 0,-0.3125 0,-27.1125 0,-0.3 -0.22504,-0.2 -5.06248,-5.075 0,-114.25 4.55,-4.525 0.2,-0.2125 0,-0.3 0,-35.05 0,-0.2875 -0.2,-0.2 -18.65,-18.65 0,-93.22496 -1.425,0 z" id="path4206" style="fill:#00aaaa" />
  <path d="m 789.475,542.98806 c -2.23872,0 -4.06248,1.8112 -4.06248,4.05 0,2.2388 1.82376,4.0624 4.06248,4.0624 1.77724,0 3.27732,-1.1579 3.825,-2.75 l 4.3,0 13.55,13.575 0.31252,0.3126 0.45,0 20.11248,0 0.45,0 0.31248,-0.3126 3.07504,-3.1 0.31248,-0.3124 0,-0.4376 0,-11.15 1.76248,-1.75 44.01252,0 55.78748,55.7875 0.31252,0.3125 0.45,0 6.55,0 10.05,10.05 0,11.8751 0,0.45 0.31252,0.3125 11.27496,11.275 0,4.7625 2.13752,0 0,-5.2125 0,-0.425 -0.31248,-0.325 -11.27504,-11.275 0,-11.875 0,-0.45 -0.31248,-0.3126 -10.675,-10.675 -0.31252,-0.3124 -0.43748,0 -6.55,0 -55.8,-55.8 -0.31252,-0.3126 -0.45,0 -44.9,0 -0.43748,0 -0.31252,0.3126 -2.38748,2.3874 -0.31252,0.3126 0,0.45 0,11.1374 -2.45,2.475 -19.23748,0 -13.53748,-13.575 -0.31252,-0.3124 -0.45,0 -4.61252,0 c -0.3784,-1.8476 -2.00364,-3.225 -3.96248,-3.225 z" id="path3444" style="fill:#00aaaa" />
  <path d="m 747.425,5e-4 0,85.19996 -117.03752,117.0375 -36.53748,0 -0.28748,0 -0.22504,0.2 -7.45,7.4625 -5.42496,0 -6.11252,-6.125 -0.225,-0.225 -0.28752,0 -1,0 c -0.35432,-1.3338 -1.5654,-2.3125 -3.01248,-2.3125 -1.72588,0 -3.11248,1.3866 -3.11248,3.1125 0,1.7259 1.3866,3.125 3.11248,3.125 1.51016,0 2.75964,-1.077 3.05,-2.5 l 0.65,0 6.15,6.15 0.225,0.2 0.28748,0 5.97504,0 0.28748,0 0.225,-0.2 7.46248,-7.4625 36.55,0 0.31252,0 0.2,-0.225 117.45,-117.45 0.2,-0.2 0,-0.2875 0,-85.49996 -1.425,0 z" id="path4236" style="fill:#00aaaa" />
  <path d="m 319.2125,260.23896 -0.2,0.2 -7.0625,7.0625 -29.775,0 -0.2875,0 -0.2,0.225 -14.2375,14.2125 -13.6875,0 -0.3125,0 -0.2,0.2 -67.1125,67.125 -1.9375,0 c -0.33566,-1.368 -1.57873,-2.3875 -3.05,-2.3875 -1.72591,0 -3.125,1.3866 -3.125,3.1125 0,1.7259 1.39909,3.125 3.125,3.125 1.48597,0 2.72941,-1.0362 3.05,-2.425 l 2.25,0 0.2875,0 0.2,-0.225 67.1,-67.1 13.725,0 0.2875,0 0.2,-0.2125 14.2375,-14.225 29.75,0 0.2875,0 0.225,-0.2 7.0375,-7.0625 8,0 3.7,3.725 c -0.23522,0.4389 -0.375,0.9287 -0.375,1.4625 0,1.7259 1.38658,3.125 3.1125,3.125 1.72592,0 3.15,-1.3991 3.15,-3.125 0,-1.7259 -1.42409,-3.1125 -3.15,-3.1125 -0.66466,0 -1.26951,0.1973 -1.775,0.55 l -3.875,-3.85 -0.2,-0.2 -0.3,0 -8.575,0 -0.2875,0 z" id="path3910" style="fill:#00aaaa" />
  <path d="m 521.16252,176.12596 c -1.72596,0 -3.12504,1.3866 -3.12504,3.1125 0,1.7259 1.39912,3.125 3.12504,3.125 1.72592,0 3.13748,-1.3991 3.13748,-3.125 0,-1.7259 -1.41156,-3.1125 -3.13748,-3.1125 z" id="path4048" style="fill:#00aaaa" />
  <path d="m 495.96252,374.48796 c -2.26972,0 -4.1,1.8303 -4.1,4.1 0,2.2697 1.83028,4.1125 4.1,4.1125 0.8402,0 1.62188,-0.2525 2.27496,-0.6875 l 2.87504,2.9 0.21248,0.2 0.3,0 8.35,0 3.7,3.675 0,16.1501 0,0.3 0.225,0.2 6.3,6.3 0,17.4 0,0.3 0.225,0.2124 20.5,20.5 0.2,0.225 0.31248,0 18.21252,0 9.825,9.85 0,16.9376 0,0.2874 0.2,0.2 16.2,16.2 0,146.1501 1.425,0 0,-146.4375 0,-0.2876 -0.2,-0.2 -16.2,-16.2 0,-16.9624 0,-0.2876 -0.225,-0.2 -10.25,-10.275 -0.225,-0.2 -0.28748,0 -18.18752,0 -20.1,-20.1 0,-17.375 0,-0.3124 -0.2,-0.2 -6.325,-6.3376 0,-16.1 0,-0.3 -0.2,-0.2125 -4.125,-4.125 -0.2,-0.2 -0.28752,0 -8.35,0 -2.67496,-2.65 c 0.51192,-0.6868 0.82496,-1.5312 0.82496,-2.45 0,-2.2697 -1.85524,-4.1 -4.12496,-4.1 z" id="path3716" style="fill:#00aaaa" />
  <path d="m 595.1,5e-4 0,88.74996 -10.18748,10.175 -15.73752,0 -0.41248,0 -0.33752,0.3125 -12.075,12.0875 -0.31252,0.3125 0,0.4375 0,14.7375 c -1.4036,0.3084 -2.47496,1.5317 -2.47496,3.025 0,1.726 1.41156,3.1375 3.13748,3.1375 1.72592,0 3.125,-1.4115 3.125,-3.1375 0,-1.1921 -0.66996,-2.2121 -1.65,-2.7375 l 0,-14.575 11.45,-11.45 15.73752,0 0.43748,0 0.31252,-0.3125 10.81248,-10.8125 0.31248,-0.3125 0,-0.45 0,-89.18746 -2.13748,0 z" id="path4264" style="fill:#00aaaa" />
  <path d="m 540.1,309.12646 -0.2,0.2 -4.525,4.55 -0.225,0.2 0,0.2875 0,8.35 -9.55,9.5375 -0.225,0.225 0.0248,0.3125 0.575,38.6 0.0248,0.2875 0.2,0.2 19.85,20.0375 0.2,0.2 0.28748,0 3.77504,0.088 5.01248,4.9875 0.2,0.225 0.28752,0 10.22496,0 1.56252,1.7375 0.225,0.225 0.31248,0 11.5,0 81.81252,81.6376 0,65.5374 0,0.2876 0.225,0.225 5.4,5.3874 0,48.5376 0,0.3124 0.21248,0.2 22.65,22.6626 0,10.4 0,0.3 0.2,0.2125 4.92504,4.925 2.03748,0 -5.73748,-5.7375 0,-10.4125 0,-0.2875 -0.2,-0.225 -22.66252,-22.6376 0,-48.5374 0,-0.2876 -0.2,-0.2 -5.425,-5.4124 0,-65.5376 0,-0.2874 -0.2,-0.2 -82.23752,-82.0876 -0.2,-0.2 -0.3,0 -11.47496,0 -1.6,-1.7375 -0.22504,-0.225 -0.31248,0 -10.2,0 -4.98752,-5 -0.2,-0.2 -0.3,-0.012 -3.81248,-0.088 -19.425,-19.6125 -0.575,-38.0125 9.55,-9.5625 0.2,-0.2 0,-0.3125 0,-8.3125 4.125,-4.125 11.18748,0 3.32504,3.325 c -0.52272,0.6156 -0.85,1.4038 -0.85,2.2875 0,1.9328 1.51508,3.5 3.38748,3.5 1.8724,0 3.41252,-1.5672 3.41252,-3.5 0,-1.9328 -1.54012,-3.4875 -3.41252,-3.4875 -0.50292,0 -0.97112,0.097 -1.4,0.3 l -3.66252,-3.65 -0.2,-0.2 -0.31248,0 -11.78752,0 -0.28748,0 z" id="path3838" style="fill:#00aaaa" />
  <path d="m 403.21252,5e-4 0,69.18746 0,0.2875 0.2,0.225 14.08748,14.05 0,32.075 a 0.71313,0.71313 0 0 0 0.0248,0.2 c -0.15256,0.3683 -0.25,0.7759 -0.25,1.2 0,1.726 1.39908,3.125 3.125,3.125 1.72592,0 3.11252,-1.399 3.11252,-3.125 0,-1.726 -1.3866,-3.125 -3.11252,-3.125 -0.5338,0 -1.03616,0.1523 -1.475,0.3875 l 0,-31 0,-0.2875 -0.2,-0.225 -14.075,-14.0625 0,-68.91246 -1.43748,0 z" id="path4318" style="fill:#00aaaa" />
  <path d="m 642.91252,489.52546 c -1.72596,0 -3.11252,1.3991 -3.11252,3.125 0,1.7259 1.3866,3.1375 3.11252,3.1375 1.72592,0 3.12496,-1.4116 3.12496,-3.1375 0,-1.7259 -1.39904,-3.125 -3.12496,-3.125 z" id="path3498" style="fill:#00aaaa" />
  <path d="m 634.025,560.52546 c -2.1988,0 -3.98752,1.7888 -3.98752,3.9876 0,2.1988 1.78872,3.9624 3.98752,3.9624 2.12224,0 3.84388,-1.6458 3.96248,-3.7374 l 5.15,0 3.83752,3.8124 0,3.9625 0,0.2875 0.225,0.225 5.475,5.475 0,13.9125 0,0.2875 0.225,0.225 3.7,3.7 0,30.5501 0,0.2875 0.2,0.2 12.33748,12.3375 2.02504,0 -13.13752,-13.1375 0,-30.5376 0,-0.3 -0.2,-0.2125 -3.725,-3.7125 0,-13.8875 0,-0.2875 -0.2,-0.225 -5.5,-5.5 0,-3.925 0,-0.3124 -0.2,-0.2 -4.23748,-4.25 -0.22504,-0.2 -0.28748,0 -5.61252,0 c -0.51192,-1.6124 -2.03324,-2.7876 -3.81248,-2.7876 z" id="path3426" style="fill:#00aaaa" />
  <path d="m 496.08748,176.12596 c -1.72592,0 -3.13748,1.3866 -3.13748,3.1125 0,1.7259 1.41156,3.125 3.13748,3.125 1.72592,0 3.12504,-1.3991 3.12504,-3.125 0,-1.7259 -1.39912,-3.1125 -3.12504,-3.1125 z" id="path4050" style="fill:#00aaaa" />
  <path d="m 396.6875,387.50046 c -2.1042,0 -3.8125,1.6958 -3.8125,3.8 0,0.6508 0.18733,1.2766 0.475,1.8125 l 0,0.025 -3.3625,3.3625 -9.525,0 -0.2875,0 -0.2,0.2 -5.3875,5.3626 -0.2,0.225 0,0.2874 0,92.4626 0,0.2874 0.2,0.2 5.9,5.9 0,44.6626 c -0.53758,0.6568 -0.8625,1.485 -0.8625,2.4 0,2.1041 1.6958,3.8124 3.8,3.8124 2.1042,0 3.8125,-1.7083 3.8125,-3.8124 0,-2.1041 -1.7083,-3.8126 -3.8125,-3.8126 -0.53652,0 -1.04942,0.1124 -1.5125,0.3126 l 0,-43.85 0,-0.2876 -0.2,-0.225 -5.9,-5.9 0,-91.8374 4.95,-4.9626 9.5125,0 0.2875,0 0.225,-0.225 3.475,-3.475 c 0.66043,0.5497 1.49874,0.8875 2.425,0.8875 2.10419,0 3.8125,-1.7083 3.8125,-3.8125 0,-2.1042 -1.70831,-3.8 -3.8125,-3.8 z" id="path3672" style="fill:#00aaaa" />
  <path d="m 901.15,131.51346 c -6.15088,0 -11.13748,4.9617 -11.13748,11.1125 0,6.1508 4.9866,11.15 11.13748,11.15 6.15088,0 11.15,-4.9991 11.15,-11.15 0,-6.1509 -4.9992,-11.1125 -11.15,-11.1125 z" id="path4088" style="fill:#00aaaa" />
  <path d="m 568.08748,83.23746 c -1.72584,0 -3.11248,1.4241 -3.11248,3.15 0,1.7259 1.38664,3.1125 3.11248,3.1125 1.72584,0 3.12504,-1.3865 3.12504,-3.1125 0,-1.726 -1.39912,-3.15 -3.12504,-3.15 z" id="path4120" style="fill:#00aaaa" />
  <path d="m 351.325,370.53796 c -2.10419,0 -3.8125,1.7083 -3.8125,3.8125 0,1.7474 1.1835,3.2007 2.7875,3.65 l 0,11.7 -51.6125,51.6126 -0.3375,0.3124 0,0.4376 0,26.3374 -11.2875,11.3 -0.3125,0.3126 0,0.425 0,76.05 -21.15,21.1249 c -0.38768,-0.17 -0.82586,-0.2625 -1.275,-0.2625 -1.72591,0 -3.1125,1.3866 -3.1125,3.1125 0,1.7259 1.38659,3.1251 3.1125,3.1251 1.72591,0 3.15,-1.3992 3.15,-3.1251 0,-0.4902 -0.13438,-0.9377 -0.3375,-1.35 l 21.4375,-21.4249 0.3125,-0.325 0,-0.425 0,-76.05 11.3,-11.3 0.3,-0.3126 0,-0.45 0,-26.3124 51.6375,-51.6126 0.3125,-0.3125 0,-0.4375 0,-12.175 c 1.56102,-0.4764 2.6875,-1.9082 2.6875,-3.625 0,-2.1042 -1.6958,-3.8125 -3.8,-3.8125 z" id="path3726" style="fill:#00aaaa" />
  <path d="m 508.08748,387.31246 c -2.10412,0 -3.81248,1.7083 -3.81248,3.8125 0,1.9337 1.44604,3.5163 3.31248,3.7625 l 0,9.7251 0,0.2874 0.2,0.225 8.82504,8.825 0,15.8376 0,0.2874 0.2,0.2 22.68748,22.6876 0.2,0.2 0.28748,0 18.1,0 8.88752,8.8874 0,17.825 0,0.3 0.2,0.2 15.43752,15.4376 0,144.1875 1.43748,0 0,-144.5001 0,-0.2874 -0.225,-0.2 -15.425,-15.425 0,-17.85 0,-0.2876 -0.225,-0.2 -9.28752,-9.3124 -0.2,-0.2 -0.31248,0 -18.075,0 -22.26252,-22.2626 0,-15.825 0,-0.3124 -0.2,-0.2 -8.82496,-8.8 0,-9.5126 c 1.64996,-0.4184 2.87496,-1.9199 2.87496,-3.7 0,-2.1042 -1.69576,-3.8125 -3.8,-3.8125 z" id="path3680" style="fill:#00aaaa" />
  <path d="m 272.125,510.70016 c -1.82048,0 -3.3,1.4795 -3.3,3.3 0,1.8205 1.47952,3.2875 3.3,3.2875 1.82048,0 3.3,-1.467 3.3,-3.2875 0,-1.8205 -1.47951,-3.3 -3.3,-3.3 z" id="path3458" style="fill:#00aaaa" />
  <path d="m 841.725,172.71346 c -3.40764,0 -6.175,2.7678 -6.175,6.175 0,3.4072 2.76736,6.1625 6.175,6.1625 3.40312,0 6.175,-2.7552 6.175,-6.1625 0,-3.4073 -2.77188,-6.175 -6.175,-6.175 z" id="path4054" style="fill:#00aaaa" />
  <path d="m 746.23748,168.67596 c -1.56852,0.1593 -2.8224,1.3298 -3.13748,2.85 l -3.925,0 -0.28752,0 -0.22496,0.225 -20.76252,20.775 -22.15,0 -0.31252,0 -0.2,0.2 -34.38748,34.375 -54.03748,0 -0.28752,0 -0.225,0.2 -13.61252,13.6125 -13.35,0 -0.28748,0 -0.225,0.2 -6.56248,6.6 -5.2,0 -2.9,-2.9 0,-12.05 0,-0.2875 -0.21252,-0.225 -2.75,-2.7375 c -0.2028,-1.5317 -1.50036,-2.725 -3.08748,-2.725 -1.72596,0 -3.12504,1.3991 -3.12504,3.125 0,1.7259 1.39912,3.1125 3.12504,3.1125 1.24676,0 2.3186,-0.7204 2.82496,-1.775 l 1.8,1.8 0,12.0625 0,0.2875 0.2,0.225 3.35,3.3125 0.2,0.2 0.28752,0 5.75,0 0.31248,0 0.2,-0.2 6.6,-6.5875 13.36252,0 0.28748,0 0.2,-0.225 13.6,-13.6 54.07504,0 0.28748,0 0.2,-0.225 34.38748,-34.35 22.15,0 0.28752,0 0.225,-0.2 20.76252,-20.8 3.61248,0 c 0.3256,1.6472 1.78076,2.9 3.525,2.9 1.9848,0 3.58748,-1.6027 3.58748,-3.5875 0,-1.9848 -1.60268,-3.5875 -3.58748,-3.5875 -0.12408,0 -0.24176,-0.012 -0.36252,0 z" id="path4060" style="fill:#00aaaa" />
  <path d="m 523.36252,483.71296 c -1.70228,0 -3.07504,1.3977 -3.07504,3.1 0,1.5196 1.10436,2.7477 2.55,3 l 0,1.45 0,0.3 0.2,0.2 9.11252,9.1125 0,139.1251 1.425,0 0,-139.4251 0,-0.2875 -0.2,-0.2 -9.11248,-9.1125 0,-1.25 c 1.2634,-0.3821 2.17496,-1.5219 2.17496,-2.9125 0,-1.7023 -1.37276,-3.1 -3.07496,-3.1 z" id="path3508" style="fill:#00aaaa" />
  <path d="m 972.525,517.50016 c -1.98408,0 -3.58752,1.6153 -3.58752,3.6 0,1.9847 1.60344,3.5875 3.58752,3.5875 1.9894,0 3.61248,-1.6028 3.61248,-3.5875 0,-1.9847 -1.62308,-3.6 -3.61248,-3.6 z" id="path3450" style="fill:#00aaaa" />
  <path d="m 508.125,475.67586 c -1.70228,0 -3.075,1.3853 -3.075,3.0876 0,1.7023 1.37272,3.075 3.075,3.075 0.78184,0 1.48328,-0.297 2.025,-0.775 l 3.125,3.1124 0,5.6626 0,0.2874 0.225,0.225 12.58748,12.5876 0,137.0625 1.42504,0 0,-137.3501 0,-0.3124 -0.22504,-0.2 -12.58748,-12.5876 0,-5.6624 0,-0.2876 -0.2,-0.2 -3.525,-3.525 c 0.13372,-0.3452 0.225,-0.7191 0.225,-1.1124 0,-1.7023 -1.37276,-3.0876 -3.075,-3.0876 z" id="path3520" style="fill:#00aaaa" />
  <path d="m 955.61252,419.62586 c -6.1508,0 -11.13752,4.9867 -11.13752,11.1376 0,6.1509 4.98672,11.125 11.13752,11.125 6.1508,0 11.13748,-4.9742 11.13748,-11.125 0,-6.1508 -4.98672,-11.1376 -11.13748,-11.1376 z" id="path3590" style="fill:#00aaaa" />
  <path d="m 297.725,300.67646 c -1.9031,0 -3.47844,1.3891 -3.7625,3.2125 l -32.575,0 -0.3125,0 -0.2,0.225 -54.4625,54.4375 -0.2,0.225 0,0.2875 0,5.8625 -55.925,55.925 -6.8875,0 -0.2875,0 -0.225,0.2 -6.55,6.55 -0.2,0.225 0,0.2876 0,6.85 -2.275,2.2624 -6.6,0 -4.7375,-4.7374 0,-19.2376 c 1.80346,-0.2594 3.175,-1.7997 3.175,-3.675 0,-2.0569 -1.6556,-3.7124 -3.7125,-3.7124 -2.0569,0 -3.725,1.6555 -3.725,3.7124 0,1.7431 1.20784,3.2066 2.825,3.6126 l 0,19.6124 0,0.2876 0.225,0.2 5.15,5.15 0.2,0.225 0.2875,0 7.225,0 0.2875,0 0.225,-0.225 2.675,-2.675 0.2,-0.2 0,-0.2876 0,-6.85 6.15,-6.15 6.8875,0 0.2875,0 0.2,-0.2 56.35,-56.35 0.2,-0.2 0,-0.2875 0,-5.8625 54.0375,-54.0625 32.3375,0 c 0.38206,1.7007 1.89647,2.9875 3.7125,2.9875 2.1042,0 3.8125,-1.7083 3.8125,-3.8125 0,-2.1042 -1.7083,-3.8125 -3.8125,-3.8125 z" id="path3848" style="fill:#00aaaa" />
  <path d="m 958.95,633.02506 c -3.80644,0 -6.9,3.1082 -6.9,6.9125 0,0.021 -2e-4,0.041 0,0.062 l 13.78748,0 c 2e-4,-0.021 0,-0.041 0,-0.062 0,-3.8043 -3.08104,-6.9125 -6.88748,-6.9125 z" id="path3350" style="fill:#00aaaa" />
  <path d="m 648.525,408.77546 c -1.81208,0.1841 -3.2,1.7269 -3.2,3.5876 0,1.9846 1.60276,3.5874 3.58752,3.5874 1.5776,0 2.9056,-1.0127 3.38748,-2.425 l 2.56252,0 46.67496,46.7 0.53752,0.5126 0.73752,0 27.53748,0 47.66252,47.6624 0,14.0876 0,0.7374 0.53748,0.5126 32.46252,32.4874 0.53748,0.5126 0.73748,0 13.86252,0 c 0.5326,1.4312 1.9036,2.45 3.525,2.45 2.08632,0 3.78752,-1.6762 3.78752,-3.7626 0,-2.0864 -1.7012,-3.7874 -3.78752,-3.7874 -1.2404,0 -2.32796,0.6112 -3.01248,1.5374 l -13.63752,0 -31.43752,-31.45 0,-14.0624 0,-0.725 -0.51248,-0.5376 -48.71248,-48.7124 -0.51252,-0.5126 -0.73748,0 -27.53752,0 -46.71248,-46.7 -0.53752,-0.5124 -0.725,0 -4.03748,0 c -0.6558,-0.7217 -1.5956,-1.1876 -2.65,-1.1876 -0.12404,0 -0.26668,-0.012 -0.38752,0 z" id="path3626" style="fill:#00aaaa" />
  <path d="m 301.475,509.91246 c -2.10419,0 -3.8125,1.7083 -3.8125,3.8125 0,2.1042 1.70831,3.8125 3.8125,3.8125 2.10419,0 3.8125,-1.7083 3.8125,-3.8125 0,-2.1042 -1.7083,-3.8125 -3.8125,-3.8125 z" id="path3466" style="fill:#00aaaa" />
  <path d="m 623.41252,258.90146 -0.31252,0.3125 -21.53748,21.575 -14.53752,0 -1.71248,-1.725 c -0.24796,-1.6799 -1.64052,-2.9625 -3.33752,-2.9625 -1.87244,0 -3.38752,1.5672 -3.38752,3.5 0,1.9328 1.51508,3.5 3.38752,3.5 1.17024,0 2.19172,-0.6069 2.8,-1.5375 l 1.05,1.025 0.31248,0.3375 0.45,0 15.41252,0 0.45,0 0.31252,-0.3375 21.55,-21.55 81.35,0 33.67496,33.675 0,5.475 -3.55,3.55 -30.95,0 -2.02496,-2.0125 c 0.3018,-0.5233 0.48748,-1.1212 0.48748,-1.775 0,-1.9328 -1.51512,-3.5 -3.38748,-3.5 -1.87236,0 -3.38752,1.5672 -3.38752,3.5 0,1.9328 1.51508,3.5 3.38752,3.5 0.46808,0 0.90716,-0.098 1.31248,-0.275 l 0.0248,0 2.38748,2.3875 0.31252,0.3125 0.45,0 31.83748,0 0.45,0 0.31252,-0.3125 4.16252,-4.1875 0.31248,-0.3125 0,-0.45 0,-6.35 0,-0.45 -0.31248,-0.3125 -34.3,-34.2875 -0.31252,-0.3125 -0.43748,0 -82.25,0 -0.45,0 z" id="path3912" style="fill:#00aaaa" />
  <path d="m 901.15,419.62586 c -6.15088,0 -11.13748,4.9867 -11.13748,11.1376 0,6.1509 4.9866,11.125 11.13748,11.125 2.66848,0 5.131,-0.939 7.05,-2.5 l 11.08744,11.1 0.4,0.425 0.61256,0 46.83744,0 2.91256,2.925 0,9.425 0,0.6 0.425,0.4 53.2624,53.25 0.2626,-0.2626 0,-3.5 -51.1,-51.1 0,-9.4 0,-0.6 -0.4,-0.425 -3.76256,-3.7624 -0.42492,-0.4 -0.6,0 -46.81252,0 -10.75,-10.7376 c 1.34528,-1.837 2.15,-4.1088 2.15,-6.5624 0,-6.1509 -4.99924,-11.1376 -11.15,-11.1376 z" id="path3592" style="fill:#00aaaa" />
  <path d="m 334.225,251.75146 c -1.72592,0 -3.1125,1.3866 -3.1125,3.1125 0,1.7259 1.38658,3.125 3.1125,3.125 1.72592,0 3.15,-1.399 3.15,-3.125 0,-1.726 -1.42409,-3.1125 -3.15,-3.1125 z" id="path3920" style="fill:#00aaaa" />
  <path d="m 57.3625,193.33896 c -0.82306,0 -1.55437,0.3299 -2.1125,0.85 l -5.2875,0 -0.4375,0 -0.3125,0.3125 -35.3625,35.3625 -13.85,0 0,2.1375 14.2875,0 0.45,0 0.3125,-0.3125 35.3625,-35.3625 3.85,0 c -0.0024,0.052 -0.01248,0.1102 -0.01248,0.1625 0,1.7259 1.38658,3.1125 3.1125,3.1125 1.72592,0 3.1375,-1.3866 3.1375,-3.1125 0,-1.7259 -1.41159,-3.15 -3.1375,-3.15 z" id="path4012" style="fill:#00aaaa" />
  <path d="m 441.925,5e-4 0,55.32496 0,0.2875 0.225,0.2 8.88752,8.9125 0,68.9625 0,0.3 0.2,0.2125 6.4,6.4 c -1.25528,0.4035 -2.16252,1.5713 -2.16252,2.9625 0,1.7259 1.3866,3.125 3.11252,3.125 1.72592,0 3.15,-1.3991 3.15,-3.125 0,-1.4301 -0.98472,-2.6175 -2.3,-2.9875 a 0.71696,0.71696 0 0 0 -0.2,-0.4 l -6.775,-6.775 0,-68.9875 0,-0.2875 -0.2,-0.2 -8.91252,-8.9125 0,-55.01246 -1.425,0 z" id="path4304" style="fill:#00aaaa" />
  <path d="m 760.975,506.77546 c -1.72648,0 -3.125,1.3991 -3.125,3.125 0,1.649 1.28148,2.9708 2.9,3.0875 l 0,3.4125 0,0.275 0.2,0.2 13.525,13.525 0,11.2875 0,0.3 0.175,0.175 11.21252,11.2125 0,10.4 0,0.2625 0.2,0.2 4.96248,4.975 0.2,0.2 0.275,0 39.925,0 0.275,0 0.175,-0.2 4.03752,-4.0375 60.56248,0 38.1,38.1126 c -0.76124,0.7373 -1.225,1.7698 -1.225,2.9124 0,2.2386 1.829,4.0625 4.06252,4.0625 2.23924,0 4.05,-1.8239 4.05,-4.0625 0,-2.2386 -1.81076,-4.05 -4.05,-4.05 -0.61804,0 -1.21312,0.1266 -1.73752,0.375 l -38.48752,-38.4625 -0.17496,-0.2 -0.27504,0 -61.1,0 -0.26248,0 -0.175,0.2 -4.06252,4.0375 -39.35,0 -4.61248,-4.6125 0,-10.3875 0,-0.2625 -0.175,-0.175 -11.23748,-11.2375 0,-11.325 0,-0.2625 -0.17504,-0.2 -13.52496,-13.525 0,-3.3 c 1.193,-0.4406 2.05,-1.5696 2.05,-2.9125 0,-1.7259 -1.41636,-3.125 -3.13752,-3.125 z" id="path3482" style="fill:#00aaaa" />
  <path d="m 322.975,387.82546 c -2.1042,0 -3.8125,1.7083 -3.8125,3.8125 0,1.6278 1.01355,3.0167 2.45,3.5625 l 0,3.6625 -35.5125,35.5125 -0.3125,0.3126 0,0.45 0,25.8874 -22.375,22.35 -0.3125,0.3126 0,0.45 0,39.3 c -1.02067,0.5608 -1.7125,1.6288 -1.7125,2.875 0,1.8204 1.47951,3.3 3.3,3.3 1.82049,0 3.275,-1.4796 3.275,-3.3 0,-1.6313 -1.1724,-2.9858 -2.725,-3.25 l 0,-38.475 22.375,-22.375 0.3125,-0.3126 0,-0.45 0,-25.8624 35.525,-35.525 0.3125,-0.3126 0,-0.45 0,-3.9125 c 1.72618,-0.363 3.025,-1.9159 3.025,-3.75 0,-2.1042 -1.70831,-3.8125 -3.8125,-3.8125 z" id="path3664" style="fill:#00aaaa" />
  <path d="m 409.03752,424.03846 c -2.1042,0 -3.81252,1.7082 -3.81252,3.8124 0,1.8955 1.39972,3.4692 3.21252,3.7626 l 0,34.275 -7.275,7.2624 -0.21252,0.225 0,0.2876 0,42.7624 0,0.2876 0.21252,0.225 4.46248,4.475 0.225,0.2 0.28752,0 3.05,0 55.91248,55.9124 0.225,0.2 0.28752,0 2.58748,0 c 0.2062,1.5 1.46708,2.65 3.025,2.65 1.70228,0 3.075,-1.3727 3.075,-3.075 0,-1.7023 -1.37272,-3.075 -3.075,-3.075 -1.35088,0 -2.48556,0.8674 -2.9,2.075 l -2.425,0 -55.91248,-55.9124 -0.2,-0.2 -0.28752,0 -3.05,0 -4.075,-4.05 0,-42.1626 7.28752,-7.3124 0.2,-0.2 0,-0.2876 0,-34.6 c 1.70312,-0.3804 2.98748,-1.9072 2.98748,-3.725 0,-2.1042 -1.70832,-3.8124 -3.81248,-3.8124 z" id="path3586" style="fill:#00aaaa" />
  <path d="m 552.98748,5e-4 0,39.8625 -13.93748,0 -1.06252,0 0,1.06246 0,54.0375 -12.78748,12.7875 -0.31252,0.3125 0,0.45 0,27.9625 -4.28748,4.275 c -0.16184,-0.026 -0.31828,-0.037 -0.48748,-0.037 -1.72596,0 -3.13752,1.3866 -3.13752,3.1125 0,1.7259 1.41156,3.125 3.13752,3.125 1.72596,0 3.12496,-1.3991 3.12496,-3.125 0,-0.7495 -0.27376,-1.4128 -0.71248,-1.95 l 4.18752,-4.2 0.31248,-0.3 0,-0.45 0,-27.9625 12.78752,-12.8125 0.31248,-0.3125 0,-0.45 0,-53.3875 13.925,0 1.075,0 0,-1.075 0,-40.92504 -2.13752,0 z" id="path4280" style="fill:#00aaaa" />
  <path d="m 796.91252,552.07546 c -3.95612,0 -7.15,3.219 -7.15,7.175 0,3.956 3.19388,7.15 7.15,7.15 3.95612,0 7.15,-3.1939 7.15,-7.15 0,-3.9561 -3.19388,-7.175 -7.15,-7.175 z" id="path3430" style="fill:#00aaaa" />
  <path d="m 358.7875,313.33896 c -2.1042,0 -3.8125,1.7083 -3.8125,3.8125 0,2.1042 1.7083,3.8125 3.8125,3.8125 2.1042,0 3.8125,-1.7083 3.8125,-3.8125 0,-2.1042 -1.7083,-3.8125 -3.8125,-3.8125 z" id="path3824" style="fill:#00aaaa" />
  <path d="m 8.4125,73.43746 -0.3125,0.3125 -8.1,8.1 0,3.025 9.3,-9.3 85.3625,0 2.325,2.325 0,102.1625 0,0.45 0.3125,0.3125 3.65,3.65 0.3125,0.3125 0.45,0 120.5625,0 0.45,0 0.3125,-0.3125 3.275,-3.275 67.425,0 c 0.4633,1.1459 1.61307,1.9625 2.925,1.9625 1.72591,0 3.1125,-1.399 3.1125,-3.125 0,-1.726 -1.38659,-3.1125 -3.1125,-3.1125 -1.38177,0 -2.54992,0.8942 -2.9625,2.1375 l -67.8375,0 -0.4375,0 -0.3125,0.3125 -3.275,3.275 -119.6875,0 -3.025,-3.0375 0,-102.1625 0,-0.425 -0.3125,-0.3375 -2.9375,-2.9375 -0.3125,-0.3125 -0.45,0 -86.2625,0 -0.4375,0 z" id="path4126" style="fill:#00aaaa" />
  <path d="m 822.96252,140.33846 c -1.98416,0 -3.61252,1.6028 -3.61252,3.5875 0,0.3796 0.0646,0.7431 0.175,1.0875 l -0.975,0.975 -0.2,0.225 0,0.2875 0,121.2875 0,0.2875 0.2,0.2125 5.83748,5.8375 0,23.6125 -24.15,24.175 -24.7,0 -0.28748,0 -0.225,0.225 -21.275,21.2875 -0.2,0.2 0,0.2875 0,13.4375 -4.86252,4.85 -17.28748,0 -17.05,-17.0375 -0.2,-0.2 -0.31252,0 -71.83748,0 -0.28748,0 -0.2,0.2 -8.65,8.6125 c -0.61776,-0.8477 -1.57976,-1.4 -2.68752,-1.4 -1.87236,0 -3.38752,1.5672 -3.38752,3.5 0,1.9328 1.51516,3.525 3.38752,3.525 1.87236,0 3.38752,-1.5922 3.38752,-3.525 0,-0.2266 -0.0356,-0.4479 -0.075,-0.6625 l 8.8,-8.825 71.28752,0 17.025,17.0375 0.2,0.2 0.31252,0 17.87496,0 0.31252,0 0.2,-0.2 5.25,-5.275 0.225,-0.2 0,-0.2875 0,-13.4625 20.875,-20.8625 24.65,0 0.31252,0 0.2,-0.2 24.6,-24.6 0.2,-0.2 0,-0.2875 0,-24.225 0,-0.3125 -0.2,-0.2 -5.83752,-5.8375 0,-120.675 0.51248,-0.5125 c 0.6634,0.7484 1.60416,1.2375 2.67504,1.2375 1.98932,0 3.58748,-1.6152 3.58748,-3.6 0,-1.9848 -1.59816,-3.5875 -3.58748,-3.5875 z" id="path4082" style="fill:#00aaaa" />
  <path d="m 685.525,393.86296 c -1.98476,0 -3.58752,1.6028 -3.58752,3.5875 0,1.9847 1.60276,3.5876 3.58752,3.5876 1.98476,0 3.58752,-1.6028 3.58752,-3.5876 0,-1.9848 -1.60284,-3.5875 -3.58752,-3.5875 z" id="path3660" style="fill:#00aaaa" />
  <path d="m 234.3625,127.12596 c -1.72591,0 -3.125,1.4116 -3.125,3.1375 0,1.7259 1.39909,3.1125 3.125,3.1125 1.72591,0 3.1125,-1.3866 3.1125,-3.1125 0,-1.7259 -1.38658,-3.1375 -3.1125,-3.1375 z" id="path4090" style="fill:#00aaaa" />
  <path d="m 688.8,5e-4 0,99.88746 -72.4,72.375 -51.21252,0 -0.28748,0 -0.225,0.2 -4.725,4.75 c -0.5716,-0.6647 -1.40224,-1.0875 -2.35,-1.0875 -1.72592,0 -3.125,1.3866 -3.125,3.1125 0,1.7259 1.39908,3.125 3.125,3.125 1.72592,0 3.11252,-1.3991 3.11252,-3.125 0,-0.2399 -0.0368,-0.4632 -0.0875,-0.6875 l 4.83752,-4.8625 51.25,0 0.28748,0 0.2,-0.225 72.825,-72.7875 0.2,-0.225 0,-0.2875 0,-100.16246 -1.425,0 z" id="path4244" style="fill:#00aaaa" />
  <path d="m 762.86252,201.27646 c -1.23916,0 -2.30948,0.6886 -2.9,1.7125 l -5.92504,0 -0.43748,0 -0.31252,0.3125 -11.43748,11.4625 -21.9,0 -3.55,-3.55 -0.31252,-0.3125 -0.43748,0 -15.71252,0 -0.45,0 -0.31248,0.3125 -29.725,29.725 -54.475,0 -0.45,0 -0.31248,0.3375 -14.52504,14.5 -4.75,0 -0.43748,0 -0.31252,0.3125 -7.08748,7.0875 -15.06252,0 c -0.5454,-0.388 -1.2118,-0.625 -1.92496,-0.625 -0.11704,0 -0.23604,-0.012 -0.35,0 -1.7096,0.1792 -3.05,1.688 -3.05,3.5 0,1.9328 1.52756,3.5 3.4,3.5 1.87244,0 3.38748,-1.5672 3.38748,-3.5 0,-0.2492 -0.0144,-0.5031 -0.0625,-0.7375 l 14.1,0 0.45,0 0.31252,-0.3125 7.08748,-7.075 4.75,0 0.43752,0 0.31248,-0.3125 14.52504,-14.5375 54.46248,0 0.45,0 0.31248,-0.3125 29.72504,-29.725 14.86248,0 3.525,3.55 0.31252,0.3125 0.43748,0 22.8,0 0.425,0 0.31248,-0.3125 11.45,-11.45 5.03752,0 c 0.17372,1.7641 1.58244,3.1375 3.33752,3.1375 1.87232,0 3.38748,-1.5672 3.38748,-3.5 0,-1.9328 -1.5152,-3.5 -3.38748,-3.5 z" id="path4008" style="fill:#00aaaa" />
  <path d="m 97.9375,264.90146 0,13.1625 13.175,0 0,-13.1625 -13.175,0 z" id="path3904" style="fill:#00aaaa" />
  <path d="m 384.3375,387.50046 c -1.44174,0.1085 -2.65169,1.019 -3.2,2.2875 l -2.725,0 -0.2875,0 -0.2,0.2 -6.6,6.575 -0.2,0.225 0,0.2875 0,100.5 0,0.2876 0.2,0.225 5.825,5.7874 0,36.1 -3.7875,3.7876 c -0.5228,-0.2736 -1.10406,-0.4376 -1.7375,-0.4376 -2.10419,0 -3.8125,1.6958 -3.8125,3.8 0,2.1042 1.70831,3.8126 3.8125,3.8126 2.10419,0 3.7875,-1.7084 3.7875,-3.8126 0,-0.9489 -0.36844,-1.7954 -0.9375,-2.4624 l 3.9,-3.8876 0.2,-0.2 0,-0.3124 0,-36.675 0,-0.2876 -0.2,-0.225 -5.8125,-5.8124 0,-99.8751 6.15,-6.175 2.1125,0 c -4e-4,0.031 0,0.057 0,0.087 0,2.1042 1.7083,3.8125 3.8125,3.8125 2.1042,0 3.8125,-1.7083 3.8125,-3.8125 0,-2.1042 -1.70831,-3.8 -3.8125,-3.8 -0.098,0 -0.20388,-0.01 -0.3,0 z" id="path3674" style="fill:#00aaaa" />
  <path d="m 654.83748,121.23796 c -1.14344,0.1162 -2.1278,0.7566 -2.7,1.6875 l -9.2,0 -0.88748,0 -0.625,0.625 -41.275,41.275 -15.925,0 c -0.45552,-0.2598 -0.97432,-0.425 -1.53752,-0.425 -1.72592,0 -3.15,1.3866 -3.15,3.1125 0,1.7259 1.42408,3.125 3.15,3.125 1.1446,0 2.13224,-0.6212 2.67504,-1.5375 l 15.68748,0 0.88748,0 0.62504,-0.625 41.26248,-41.2625 8.7,0 c 0.66172,0.7497 1.61032,1.225 2.68752,1.225 1.99176,0 3.61248,-1.6207 3.61248,-3.6125 0,-1.9918 -1.62072,-3.5875 -3.61248,-3.5875 -0.12444,0 -0.25376,-0.012 -0.37504,0 z" id="path4096" style="fill:#00aaaa" />
  <path d="m 909.53748,5e-4 25.08752,25.0875 0,327.04996 0,0.4375 0.31244,0.3125 11.91256,11.9 0.31252,0.3125 0.42492,0 10.52508,0 29.85,29.8625 0,55.8875 0,0.4376 0.31248,0.3124 7.06244,7.0626 0.31256,0.3124 0.45,0 27.9,0 0,-2.1374 -27.45,0 -6.43748,-6.4376 0,-55.8875 0,-0.45 -0.31252,-0.3 -30.48748,-30.4875 -0.31252,-0.3125 -0.45,0 -10.51256,0 -11.27492,-11.275 0,-327.04996 0,-0.4375 L 936.45,23.888 912.56252,5e-4 l -3.02504,0 z" id="path4186" style="fill:#00aaaa" />
  <path d="m 493.06252,472.26306 c -1.70224,0 -3.1,1.3727 -3.1,3.075 0,1.7023 1.39772,3.075 3.1,3.075 0.42556,0 0.83188,-0.095 1.2,-0.25 l 0.0248,0 4.01252,4.0124 0,9.9376 0,0.2874 0.2,0.225 4.01252,3.9876 0.2,0.225 0.28748,0 4.075,0 9.76248,9.7624 0,133.4001 1.42504,0 0,-133.6875 0,-0.3 -0.2,-0.2 -10.2,-10.2 -0.2,-0.2 -0.31252,0 -4.03748,0 -3.58752,-3.5876 0,-9.9374 0,-0.2876 -0.225,-0.225 -4.075,-4.075 c 0.44156,-0.5322 0.71248,-1.2145 0.71248,-1.9624 0,-1.7023 -1.37272,-3.075 -3.07496,-3.075 z" id="path3538" style="fill:#00aaaa" />
  <path d="m 844.2,415.38846 c -3.35648,0 -6.06256,2.731 -6.06256,6.0874 0,3.3564 2.70608,6.0626 6.06256,6.0626 3.35648,0 6.075,-2.7061 6.075,-6.0626 0,-3.3565 -2.71848,-6.0874 -6.075,-6.0874 z" id="path3594" style="fill:#00aaaa" />
  <path d="m 321.8625,325.58896 c -2.10419,0 -3.8125,1.7083 -3.8125,3.8125 0,0.9263 0.33786,1.7771 0.8875,2.4375 l -3.45,3.425 -0.2,0.225 0,0.2875 0,7.225 -3.5625,3.5875 -42.7125,0 -0.3125,0 -0.2,0.2 -38.7375,38.725 -0.2,0.2 0,0.2875 0,18.9876 -13.2375,13.2374 -0.2,0.2 0,0.3126 0,34.1124 -44.9875,45.0126 -0.2,0.2 0,0.2874 0,8.0876 c -1.66287,0.1684 -2.9625,1.5678 -2.9625,3.275 0,1.8204 1.47952,3.3 3.3,3.3 1.82048,0 3.275,-1.4796 3.275,-3.3 0,-1.4337 -0.9149,-2.6334 -2.1875,-3.0876 l 0,-7.9874 44.9875,-44.9876 0.2,-0.2 0,-0.2874 0,-34.1376 13.225,-13.2124 0.2125,-0.225 0,-0.2876 0,-19.0125 38.2875,-38.275 42.7375,0 0.3125,0 0.2,-0.225 3.9875,-3.9625 0.2,-0.225 0,-0.2875 0,-7.225 3.325,-3.3375 0.025,0 c 0.53591,0.2877 1.14927,0.4625 1.8,0.4625 2.1042,0 3.8125,-1.7083 3.8125,-3.8125 0,-2.1042 -1.7083,-3.8125 -3.8125,-3.8125 z" id="path3812" style="fill:#00aaaa" />
  <path d="m 623.88748,394.42546 c -1.812,0.1841 -3.23748,1.7269 -3.23748,3.5875 0,1.9847 1.6028,3.5875 3.58748,3.5875 1.98468,0 3.61252,-1.6028 3.61252,-3.5875 0,-1.9847 -1.6278,-3.5875 -3.61252,-3.5875 -0.12396,0 -0.22912,-0.012 -0.35,0 z" id="path3658" style="fill:#00aaaa" />
  <path d="m 266.7875,5e-4 39.275,39.275 0,19.61246 0,0.2875 0.225,0.225 57.0875,57.0875 0,32.6 0,0.2875 0.2,0.225 4.525,4.525 c -0.14126,0.3583 -0.225,0.7553 -0.225,1.1625 0,1.7259 1.39909,3.1125 3.125,3.1125 1.72591,0 3.1125,-1.3866 3.1125,-3.1125 0,-1.7259 -1.38658,-3.15 -3.1125,-3.15 -0.78936,0 -1.50117,0.301 -2.05,0.7875 l -4.15,-4.15 0,-32.575 0,-0.3125 -0.2,-0.2 -57.1125,-57.1125 0,-19.58746 0,-0.2875 -0.2,-0.225 -38.475,-38.475 -2.025,0 z" id="path4342" style="fill:#00aaaa" />
  <path d="m 555.725,469.42646 c -1.70224,0 -3.075,1.3727 -3.075,3.075 0,1.7023 1.37276,3.075 3.075,3.075 0.58608,0 1.13112,-0.1797 1.6,-0.4625 l 3.56248,3.5625 0,4.1875 0,0.2875 0.2,0.225 15.53752,15.5375 0,141.0875 1.425,0 0,-141.4 0,-0.2875 -0.225,-0.225 -15.51248,-15.5125 0,-4.2125 0,-0.2875 -0.21252,-0.2 -3.75,-3.7375 c 0.29756,-0.4717 0.475,-1.0391 0.475,-1.6375 0,-1.7023 -1.39772,-3.075 -3.1,-3.075 z" id="path3546" style="fill:#00aaaa" />
  <path d="m 834.55,147.06346 0,13.4125 13.78748,0 0,-13.4125 -13.78748,0 z" id="path4072" style="fill:#00aaaa" />
  <path d="m 273.3,5e-4 37.15,37.1625 0,20.01246 0,0.2875 0.2,0.2 56.45,56.4375 0,22 0,0.2875 0.2,0.2 3.85,3.875 -0.15,-0.012 c -1.72591,0 -3.125,1.3865 -3.125,3.1125 0,1.726 1.39909,3.125 3.125,3.125 1.72591,0 3.1125,-1.3991 3.1125,-3.125 0,-1.0214 -0.49382,-1.9313 -1.25,-2.5 a 0.7248,0.7248 0 0 0 -0.0375,-0.975 l -4.3,-4.275 0,-22 0,-0.3125 -0.225,-0.2 -56.425,-56.4125 0,-20.01254 0,-0.2875 -0.2125,-0.225 L 275.3,9.2e-4 l -2,0 z" id="path4340" style="fill:#00aaaa" />
  <path d="m 745.06252,485.30046 c -1.72124,0 -3.12504,1.3866 -3.12504,3.1125 0,1.7259 1.40384,3.125 3.12504,3.125 1.72644,0 3.11248,-1.3991 3.11248,-3.125 0,-1.7259 -1.38604,-3.1125 -3.11248,-3.1125 z" id="path3502" style="fill:#00aaaa" />
  <path d="m 333.675,299.76396 c -2.1042,0 -3.8125,1.7083 -3.8125,3.8125 0,2.1042 1.7083,3.8125 3.8125,3.8125 2.1042,0 3.8125,-1.7083 3.8125,-3.8125 0,-2.1042 -1.7083,-3.8125 -3.8125,-3.8125 z" id="path3850" style="fill:#00aaaa" />
  <path d="m 863.91252,633.01306 0,6.9875 13,0 0,-6.9875 -13,0 z" id="path3352" style="fill:#00aaaa" />
  <path d="m 374.9,300.67646 c -2.10419,0 -3.8125,1.7083 -3.8125,3.8125 0,2.1042 1.70831,3.8125 3.8125,3.8125 2.10419,0 3.8125,-1.7083 3.8125,-3.8125 0,-2.1042 -1.7083,-3.8125 -3.8125,-3.8125 z" id="path3840" style="fill:#00aaaa" />
  <path d="m 0,606.45046 0,3.025 30.5,30.5251 3.0375,0 L 0,606.45046 Z" id="path3386" style="fill:#00aaaa" />
  <path d="m 567.575,5e-4 0,44.64996 -10.53752,10.8125 c -0.39324,-0.1785 -0.82664,-0.3 -1.28748,-0.3 -1.72592,0 -3.125,1.3991 -3.125,3.125 0,1.7259 1.39908,3.1375 3.125,3.1375 1.57192,0 2.8562,-1.1739 3.075,-2.6875 l 11.8,-12.125 0.51248,-0.5375 0,-0.7125 0,-45.36246 -3.56248,0 z" id="path4274" style="fill:#00aaaa" />
  <path d="m 334.05,385.96346 c -1.92121,0.1952 -3.4125,1.8274 -3.4125,3.8 0,0.6125 0.14312,1.2122 0.4,1.725 l -3.8,3.8125 -0.3125,0.3 0,0.45 0,3.5 -36.8375,36.8376 -0.3125,0.3124 0,0.4376 0,26.2124 -11.675,11.65 -0.3125,0.3126 0,0.45 0,44.6 -11.3,11.3 -6.075,0 -3.8625,-3.85 c 0.38852,-0.5411 0.625,-1.1961 0.625,-1.9126 0,-1.8204 -1.47952,-3.3 -3.3,-3.3 -1.82048,0 -3.3,1.4796 -3.3,3.3 0,1.8204 1.47952,3.2876 3.3,3.2876 0.30832,0 0.60437,-0.046 0.8875,-0.125 l 4.4375,4.425 0.3125,0.3124 0.45,0 6.975,0 0.4375,0 0.3125,-0.3124 11.925,-11.9126 0.3125,-0.3124 0,-0.45 0,-44.6126 11.675,-11.65 0.3125,-0.3124 0,-0.45 0,-26.2 36.8375,-36.8376 0.3125,-0.3124 0,-0.4376 0,-3.5 3.45,-3.4625 c 0.56651,0.334 1.2324,0.5375 1.9375,0.5375 2.1042,0 3.8125,-1.7083 3.8125,-3.8125 0,-2.1042 -1.7083,-3.8 -3.8125,-3.8 -0.1315,0 -0.27192,-0.013 -0.4,0 z" id="path3692" style="fill:#00aaaa" />
  <path d="m 334.625,412.82586 c -2.10419,0 -3.8,1.7084 -3.8,3.8126 0,0.698 0.19724,1.3623 0.525,1.925 l -3.7375,3.7374 -0.3125,0.3126 0,0.45 0,101.3374 0,0.425 0.3125,0.3126 13.725,13.75 c -0.16458,0.4258 -0.25,0.891 -0.25,1.375 0,2.1042 1.7083,3.8124 3.8125,3.8124 2.1042,0 3.8125,-1.7082 3.8125,-3.8124 0,-2.1042 -1.7083,-3.8 -3.8125,-3.8 -0.83447,0 -1.59732,0.2699 -2.225,0.725 l -13.2375,-13.2376 0,-100.45 3.475,-3.475 c 0.51505,0.2598 1.09636,0.425 1.7125,0.425 2.1042,0 3.8125,-1.7082 3.8125,-3.8124 0,-2.1042 -1.7083,-3.8126 -3.8125,-3.8126 z" id="path3598" style="fill:#00aaaa" />
  <path d="m 595.36252,509.67546 c -1.70232,0 -3.07504,1.3728 -3.07504,3.075 0,1.7022 1.37272,3.075 3.07504,3.075 1.70232,0 3.1,-1.3727 3.1,-3.075 0,-1.7023 -1.39776,-3.075 -3.1,-3.075 z" id="path3470" style="fill:#00aaaa" />
  <path d="m 632.35,309.52646 c -1.87244,0 -3.4,1.5672 -3.4,3.5 0,0.6893 0.1886,1.3335 0.525,1.875 l -11.53752,11.5375 -64.91248,0 -0.28752,0 -0.22496,0.2 -16.93752,16.9375 -0.2,0.225 0,0.2875 0,22.725 0,0.3125 0.2,0.2 15.05,15.05 0.2,0.2 0.31248,0 3.02504,0 6.52496,6.55 0.22504,0.2 0.28748,0 8.51252,0 1.61248,1.6 0.2,0.2 0.28752,0 11.47496,0 86.7,86.7 0,64.5126 0,0.2874 0.2,0.225 5.3,5.2876 0,48.9249 0,0.2875 0.21252,0.225 18.71252,18.725 0.2,0.2 0.31248,0 18.5,0 2.46248,2.475 0,20.4501 0,0.3125 0.2,0.2 0.0625,0.062 2.025,0 -0.86248,-0.8625 0,-20.4626 0,-0.3 -0.2,-0.2125 -2.88752,-2.8625 -0.2,-0.225 -0.3,0 -18.53752,0 -18.26248,-18.3 0,-48.9374 0,-0.2876 -0.225,-0.225 -5.28748,-5.3 0,-64.4874 0,-0.3126 -0.2,-0.2 -87.12504,-87.1 -0.2,-0.225 -0.31248,0 -11.475,0 -1.58748,-1.6 -0.21252,-0.2 -0.3,0 -8.48748,0 -6.55,-6.5375 -0.2,-0.2125 -0.28752,0 -3.075,0 -14.6,-14.6 0,-22.175 16.48748,-16.5125 64.96252,0 0.28748,0 0.22504,-0.225 11.7,-11.7125 0.0248,0 c 0.54128,0.3705 1.16708,0.6 1.86252,0.6 1.87236,0 3.38748,-1.5672 3.38748,-3.5 0,-1.9328 -1.51512,-3.5 -3.38748,-3.5 z" id="path3836" style="fill:#00aaaa" />
  <path d="m 408.25,350.08796 c -2.1042,0 -3.81248,1.6958 -3.81248,3.8 0,2.1042 1.70828,3.8125 3.81248,3.8125 2.1042,0 3.81252,-1.7083 3.81252,-3.8125 0,-2.1042 -1.70832,-3.8 -3.81252,-3.8 z" id="path3764" style="fill:#00aaaa" />
  <path d="m 533.08748,238.96396 c -1.72592,0 -3.12496,1.3866 -3.12496,3.1125 0,1.7259 1.39908,3.125 3.12496,3.125 1.72588,0 3.13752,-1.399 3.13752,-3.125 0,-1.726 -1.41156,-3.1125 -3.13752,-3.1125 z" id="path3946" style="fill:#00aaaa" />
  <path d="m 492.775,19.488 c -4.13612,0 -7.48752,3.35139 -7.48752,7.4875 0,1.37506 0.3786,2.66778 1.02504,3.775 l -4.92504,4.925 -0.62496,0.6125 0,0.9 0,91.22496 a 2.13938,2.13938 0 0 0 0,0.087 c -0.67236,0.5718 -1.11252,1.4086 -1.11252,2.3625 0,1.7259 1.38656,3.125 3.11252,3.125 1.72596,0 3.12496,-1.3991 3.12496,-3.125 0,-0.8342 -0.34356,-1.5783 -0.87496,-2.1375 a 2.13938,2.13938 0 0 0 0.0248,-0.3125 l 0,-90.33746 4.38752,-4.4125 c 1.00764,0.50462 2.14596,0.8 3.35,0.8 4.13608,0 7.48752,-3.35139 7.48752,-7.4875 0,-4.13611 -3.35144,-7.4875 -7.48752,-7.4875 z" id="path4168" style="fill:#00aaaa" />
  <path d="m 758.38748,192.41346 c -1.98932,0 -3.61248,1.6028 -3.61248,3.5875 0,1.9847 1.6232,3.5875 3.61248,3.5875 1.98416,0 3.58752,-1.6027 3.58752,-3.5875 0,-1.9848 -1.60332,-3.5875 -3.58752,-3.5875 z" id="path4016" style="fill:#00aaaa" />
  <path d="m 374.9,313.33896 c -2.10419,0 -3.8125,1.7083 -3.8125,3.8125 0,2.1042 1.70831,3.8125 3.8125,3.8125 2.10419,0 3.8125,-1.7083 3.8125,-3.8125 0,-2.1042 -1.7083,-3.8125 -3.8125,-3.8125 z" id="path3822" style="fill:#00aaaa" />
  <path d="m 409.03752,399.81296 c -2.1042,0 -3.81252,1.7083 -3.81252,3.8125 0,1.2976 0.63412,2.4619 1.625,3.15 l -8.8625,8.8376 -0.2125,0.225 0,0.2874 0,50.7626 -2.625,2.65 -0.225,0.2 0,0.3124 0,51.675 0,0.3126 0.225,0.2 67.075,67.0749 0.2,0.2 0.28752,0 2.93748,0 c 0.0244,1.6815 1.41276,3.0251 3.1,3.0251 1.70224,0 3.075,-1.3728 3.075,-3.0751 0,-1.7023 -1.37276,-3.0875 -3.075,-3.0875 -1.20704,0 -2.2522,0.6976 -2.76252,1.7126 l -2.98748,0 -66.65,-66.65 0,-51.1 2.6625,-2.625 0.2,-0.225 0,-0.2876 0,-50.7624 9.0375,-9.0626 0.0248,0 c 0.24804,0.051 0.49948,0.063 0.76252,0.063 2.1042,0 3.81248,-1.7084 3.81248,-3.8126 0,-2.1042 -1.70828,-3.8125 -3.81248,-3.8125 z" id="path3642" style="fill:#00aaaa" />
  <path d="m 539.83748,329.13896 c -1.8724,0 -3.38748,1.5672 -3.38748,3.5 0,0.8308 0.28228,1.5751 0.75,2.175 l -5.43748,5.425 -0.2,0.2125 0,0.3 0,27.65 0,0.2875 0.2,0.225 16.91248,16.8875 0.21248,0.225 0.28752,0 4.81248,0 5.7,5.7 0.22504,0.225 0.28748,0 8.08748,0 1.76252,1.7625 0.2,0.225 0.31252,0 11.01248,0 84.825,84.8251 0,65.225 0,0.3124 0.225,0.2 5.475,5.4876 0,48.55 0,0.2874 0.21252,0.225 19.76248,19.7376 0.2,0.2249 0.28752,0 19.65,0 1.51248,1.5126 0,19.475 1.43752,0 0,-19.7875 0,-0.2875 -0.22504,-0.2 -1.93748,-1.9375 -0.2,-0.2 -0.3,0 -19.625,0 -19.33752,-19.3376 0,-48.5624 0,-0.2876 -0.22496,-0.225 -5.48752,-5.475 0,-65.2 0,-0.2874 -0.2,-0.225 -85.275,-85.2751 -0.2,-0.2 -0.31252,0 -10.98748,0 -1.775,-1.7875 -0.2,-0.2 -0.3,0 -8.06248,0 -5.72504,-5.725 -0.22496,-0.2 -0.28752,0 -4.78752,0 -16.5,-16.4875 0,-27.1 5.31252,-5.275 c 0.46448,0.2473 0.97844,0.4 1.53748,0.4 1.87244,0 3.38752,-1.5672 3.38752,-3.5 0,-1.9328 -1.51508,-3.5 -3.38752,-3.5 z" id="path3806" style="fill:#00aaaa" />
  <path d="m 496.05,399.48796 c -2.26964,0 -4.1,1.8303 -4.1,4.1001 0,1.8516 1.21888,3.4204 2.9,3.9374 l 0,16.4876 0,0.3124 0.21252,0.2 45.35,45.35 0,17.65 0,0.3126 0.22496,0.2 6.6,6.6124 0,145.3501 1.42504,0 0,-145.6625 0,-0.2876 -0.22504,-0.225 -6.6,-6.5874 0,-17.65 0,-0.2876 -0.2,-0.2 -45.36248,-45.375 0,-16.0374 c 2.16672,-0.1167 3.9,-1.9052 3.9,-4.1 0,-2.2698 -1.85528,-4.1001 -4.125,-4.1001 z" id="path3650" style="fill:#00aaaa" />
  <path d="m 347.175,213.97596 c -1.72591,0 -3.1375,1.4241 -3.1375,3.15 0,1.7259 1.41159,3.1125 3.1375,3.1125 1.72591,0 3.125,-1.3865 3.125,-3.1125 0,-1.726 -1.39908,-3.15 -3.125,-3.15 z" id="path3986" style="fill:#00aaaa" />
  <path d="m 483.21252,412.31346 c -1.986,0 -3.58752,1.6015 -3.58752,3.5874 0,1.7746 1.27336,3.2789 2.96248,3.575 l 0,43.5376 0,0.175 0.0875,0.175 1.1,1.9 0,19.8374 0,0.2876 0.21248,0.225 16.92504,16.9124 0.2,0.2 0.28748,0 3.51252,0 6,5.9876 0,131.2875 1.42496,0 0,-131.6001 0,-0.2874 -0.22496,-0.225 -6.38752,-6.3876 -0.2,-0.2 -0.31248,0 -3.5,0 -16.51252,-16.5124 0,-19.725 0,-0.175 -0.0875,-0.1876 -1.1,-1.85 0,-43.425 c 1.60128,-0.365 2.78748,-1.8124 2.78748,-3.525 0,-1.9859 -1.60152,-3.5874 -3.58748,-3.5874 z" id="path3600" style="fill:#00aaaa" />
  <path d="m 677.45,5e-4 0,70.67496 -84.53748,84.5625 -16,0 -0.42504,0 -0.33748,0.3125 -4.675,4.6875 -7.375,0 -0.45,0 -0.31252,0.3 -3.91248,3.925 c -0.5148,-0.3748 -1.13792,-0.6 -1.825,-0.6 -1.72592,0 -3.125,1.3991 -3.125,3.125 0,1.7259 1.39908,3.1375 3.125,3.1375 1.72592,0 3.11252,-1.4115 3.11252,-3.1375 0,-0.2399 -0.0368,-0.4757 -0.0875,-0.7 a 1.07144,1.07144 0 0 0 0.0248,-0.012 l 3.9,-3.9 7.375,0 0.43752,0 0.31248,-0.3125 4.68752,-4.6875 16,0 0.43748,0 0.31252,-0.3125 85.16248,-85.1875 0.31248,-0.3125 0,-0.4375 0,-71.12504 -2.13748,0 z" id="path4248" style="fill:#00aaaa" />
  <path d="m 454.31252,6.4755 c -1.72592,0 -3.13752,1.42409 -3.13752,3.15 0,1.72591 1.4116,3.1125 3.13752,3.1125 1.72592,0 3.125,-1.38658 3.125,-3.1125 0,-1.72592 -1.39912,-3.15 -3.125,-3.15 z" id="path4174" style="fill:#00aaaa" />
  <path d="m 407.98752,472.83846 c -2.1042,0 -3.78752,1.7082 -3.78752,3.8124 0,2.1042 1.68332,3.8126 3.78752,3.8126 2.1042,0 3.81248,-1.7084 3.81248,-3.8126 0,-2.1042 -1.70828,-3.8124 -3.81248,-3.8124 z" id="path3530" style="fill:#00aaaa" />
  <path d="m 562.5,513.77516 c -1.70228,0 -3.075,1.3728 -3.075,3.075 0,1.4895 1.04684,2.7347 2.45,3.025 l 0,120.1251 1.425,0 0,-120.1626 c 1.31208,-0.3562 2.275,-1.5624 2.275,-2.9875 0,-1.7022 -1.37272,-3.075 -3.075,-3.075 z" id="path3456" style="fill:#00aaaa" />
  <path d="m 792.43748,5e-4 0,102.22496 0,0.2875 0.2,0.225 10.73752,10.75 0,46.2125 -9.175,9.175 -33.525,0 -0.28752,0 -0.2,0.2 -31.37496,31.375 -30.58752,0 -0.31248,0 -0.2,0.225 -33.87504,33.875 -52.67496,0 -0.31252,0 -0.2,0.2 -14.21252,14.2125 -10.47496,0 -0.28752,0 -0.2,0.225 -2.36248,2.3625 c -0.26088,-0.06 -0.53312,-0.087 -0.81252,-0.087 -1.98472,0 -3.58748,1.6028 -3.58748,3.5875 0,1.9847 1.60276,3.6 3.58748,3.6 1.98472,0 3.58748,-1.6152 3.58748,-3.6 0,-1.1672 -0.56456,-2.2078 -1.42496,-2.8625 l 1.81248,-1.8 10.45,0 0.28752,0 0.22496,-0.2 14.18752,-14.2125 52.7,0 0.31248,0 0.2,-0.225 33.87504,-33.875 30.58748,0 0.3,0 0.21252,-0.2 31.36248,-31.375 33.53752,0 0.28748,0 0.2,-0.225 9.6,-9.575 0.2,-0.225 0,-0.2875 0,-46.8 0,-0.2875 -0.2,-0.225 -10.73748,-10.7125 0,-101.96246 -1.42504,0 z" id="path4216" style="fill:#00aaaa" />
  <path d="m 325.7625,5e-4 19.425,19.425 0,38.66246 0,0.3125 0.225,0.2 48.3375,48.325 0,10.55 0,0.2875 0.2,0.2 7.325,7.325 0,9.3 0,0.4 0.36252,0.225 3.625,2.0875 0.16248,0.088 0.2,0 4.75,0 3.56252,3.5875 0,29.8125 0,0.3125 0.2,0.2 3.225,3.2375 0.225,0.2 0.28748,0 46.31252,0 0.28748,0 0.2,-0.2 4.25,-4.2625 c 0.4654,0.2758 1.00612,0.45 1.58752,0.45 1.72588,0 3.12496,-1.3865 3.12496,-3.1125 0,-1.726 -1.39908,-3.125 -3.12496,-3.125 -1.72588,0 -3.12504,1.3991 -3.12504,3.125 0,0.629 0.19368,1.1982 0.51252,1.6875 l -4,4.0125 -45.725,0 -2.81248,-2.7875 0,-29.8625 0,-0.2875 -0.225,-0.2 -3.98752,-4.0125 -0.2,-0.2 -0.31248,0 -4.81252,0 -3.125,-1.8 0,-9.1375 0,-0.3125 -0.2,-0.2 -7.325,-7.3375 0,-10.5375 0,-0.3125 -0.225,-0.2 -48.325,-48.325 0,-38.66246 0,-0.2875 -0.2125,-0.2 -18.6375,-18.65 -2.0125,0 z" id="path4324" style="fill:#00aaaa" />
  <path d="m 646.775,284.35146 c -1.70956,0.1793 -3.06248,1.688 -3.06248,3.5 0,1.9328 1.54012,3.5 3.41248,3.5 1.87236,0 3.38752,-1.5672 3.38752,-3.5 0,-1.9328 -1.51504,-3.5 -3.38752,-3.5 -0.117,0 -0.23604,-0.012 -0.35,0 z" id="path3878" style="fill:#00aaaa" />
  <path d="m 586.13748,5e-4 0,64.52496 -4.23748,4.2375 -16.8,0 c -0.52352,-0.3974 -1.153,-0.65 -1.86252,-0.65 -1.72592,0 -3.12496,1.3991 -3.12496,3.125 0,1.7259 1.39908,3.1125 3.12496,3.1125 1.34284,0 2.47188,-0.8375 2.91252,-2.025 l 16.48748,0 0.73752,0 0.51248,-0.5125 5.28752,-5.275 0.525,-0.5125 0,-0.7625 0,-65.26246 -3.56252,0 z" id="path4268" style="fill:#00aaaa" />
  <path d="m 943.26252,5e-4 0,62.32496 0,1.4625 1.05,1.05 38.17492,38.175 0,197.9125 0,1.475 1.05,1.05 12.38756,12.4 0,51.2375 c -1.57504,1.1293 -2.61248,2.9582 -2.61248,5.0375 0,3.4282 2.79928,6.2125 6.22492,6.2125 3.42566,0 6.18756,-2.7843 6.18756,-6.2125 0,-2.1198 -1.057,-3.9898 -2.675,-5.1125 l 0,-52.65 0,-1.475 -1.05,-1.0375 -12.38748,-12.4 0,-197.9375 0,-1.4625 -1.03752,-1.05 -38.175,-38.15 0,-60.84996 -7.13748,0 z" id="path4182" style="fill:#00aaaa" />
  <path d="m 41.325,229.95146 c -1.72591,0 -3.125,1.4241 -3.125,3.15 0,1.7259 1.39909,3.1125 3.125,3.1125 1.72591,0 3.1375,-1.3866 3.1375,-3.1125 0,-1.7259 -1.41159,-3.15 -3.1375,-3.15 z" id="path3958" style="fill:#00aaaa" />
  <path d="m 334.0625,5e-4 16.3875,16.4 0,42.57496 0,0.2875 0.2,0.225 45.75,45.75 0,11.6125 0,0.2875 0.2,0.225 7.8,7.8 0,3.7 c -0.4506,0.5408 -0.73748,1.2143 -0.73748,1.975 0,1.726 1.39908,3.125 3.125,3.125 1.72592,0 3.11248,-1.399 3.11248,-3.125 0,-1.726 -1.3866,-3.1125 -3.11248,-3.1125 -0.33464,0 -0.6606,0.053 -0.96252,0.15 l 0,-3.025 0,-0.3 -0.2,-0.2125 -7.8,-7.8 0,-11.6125 0,-0.2875 -0.2,-0.2 -45.75,-45.75 0,-42.59996 0,-0.3 -0.225,-0.2125 -15.5875,-15.575 -2,0 z" id="path4322" style="fill:#00aaaa" />
  <path d="m 321.6625,239.40146 c -1.70306,0 -3.10068,1.3803 -3.1375,3.075 l -1.875,1.1 -43.6375,0 -0.575,0 -0.425,0.4 -16.2,16.2125 -30.5625,0 -0.5875,0 -0.425,0.425 -32.525,32.5125 -13.325,0 -1.125,-0.65 c 0.0851,-0.2857 0.1625,-0.5749 0.1625,-0.8875 0,-1.7259 -1.39908,-3.1125 -3.125,-3.1125 -1.72592,0 -3.1125,1.3866 -3.1125,3.1125 0,1.7259 1.3866,3.1375 3.1125,3.1375 0.31259,0 0.61552,-0.064 0.9,-0.15 l 2.0625,1.2 0.3375,0.2 0.3875,0 14.325,0 0.6,0 0.425,-0.425 32.4875,-32.5 30.575,0 0.575,0 0.425,-0.425 16.2,-16.2 43.45,0 0.4,0 0.3125,-0.2 2.025,-1.1875 c 0.52359,0.3861 1.17666,0.625 1.875,0.625 1.72591,0 3.125,-1.3866 3.125,-3.1125 0,-1.7259 -1.39909,-3.15 -3.125,-3.15 z" id="path3942" style="fill:#00aaaa" />
  <path d="m 348.6,297.33896 -0.3125,0.3125 -16.4375,16.45 -0.3125,0.3125 0,0.4375 0,22.625 -17.1125,17.1125 -12.2875,0 -0.4375,0 -0.3125,0.3125 -4.6375,4.625 -21.8625,0 -0.4375,0 -0.3125,0.3125 -31.4875,31.5125 -0.3125,0.3125 0,0.45 0,50.6251 -58.8125,58.8 -0.3125,0.3124 0,0.425 0,12.8376 -25.4,25.4 -0.3125,0.3124 0,0.45 0,18.025 0,0.4376 0.3125,0.3124 24.7625,24.7876 0,19.6874 -7.4,7.4 -13.4375,0 -33.0875,-33.0874 0,-56.4 0,-0.2876 -0.1375,-0.25 -1.85,-3.2 -0.3125,-0.5374 -0.6,0 -125.75,0 0,2.1374 125.125,0 1.3875,2.4126 0,56.575 0,0.4374 0.325,0.3126 33.7,33.7249 0.3125,0.3 0.4375,0 14.3375,0 0.4375,0 0.3125,-0.3 8.025,-8.0249 0.3125,-0.3126 0,-0.45 0,-20.5874 0,-0.45 -0.3125,-0.3126 -24.7625,-24.775 0,-17.1374 25.4125,-25.4 0.3125,-0.3126 0,-0.45 0,-12.825 58.8,-58.8124 0.3125,-0.3126 0,-0.425 0,-50.625 30.8625,-30.875 21.8625,0 0.4375,0 0.3125,-0.3125 4.6375,-4.6375 12.275,0 0.45,0 0.3125,-0.3125 17.7375,-17.7375 0.3125,-0.3125 0,-0.45 0,-22.6125 15.8125,-15.825 30.8,0 1.5375,1.5375 0,21.1 0,0.45 0.3125,0.3125 7.4,7.4 0.3125,0.3125 0.4375,0 97.47502,0 3.36248,1.9625 0.25,0.125 0.28752,0 26.62496,0 0.45,0 0.31252,-0.3125 11.51252,-11.5125 0.31248,-0.3125 0,-0.45 0,-7.4625 5.975,-5.95 14.88748,0 4.07504,4.05 0.31248,0.3125 0.45,0 7.275,0 3.18748,3.2125 c -0.34868,0.5501 -0.55,1.2055 -0.55,1.9125 0,1.9328 1.51516,3.5 3.38752,3.5 1.87236,0 3.38752,-1.5672 3.38752,-3.5 0,-1.9328 -1.51512,-3.4875 -3.38752,-3.4875 -0.41016,0 -0.79876,0.075 -1.16248,0.2125 l -3.65,-3.65 -0.31252,-0.3375 -0.45,0 -7.31252,0 -4.05,-4.05 -0.31248,-0.3125 -0.45,0 -15.775,0 -0.43748,0 -0.31252,0.3125 -6.6,6.575 -0.31252,0.3125 0,0.4375 0,7.4625 -10.9,10.9 -25.86248,0 -3.41248,-1.9625 -0.26252,-0.125 -0.275,0 -97.2875,0 -6.775,-6.775 0,-21.1 0,-0.45 -0.3125,-0.3125 -2.1625,-2.1625 -0.3125,-0.3125 -0.4375,0 -31.6875,0 -0.45,0 z" id="path3852" style="fill:#00aaaa" />
  <path d="m 759.925,612.62546 c -1.72592,0 -3.13752,1.4116 -3.13752,3.1375 0,1.7259 1.4116,3.1251 3.13752,3.1251 1.72592,0 3.11248,-1.3992 3.11248,-3.1251 0,-1.7259 -1.3866,-3.1375 -3.11248,-3.1375 z" id="path3370" style="fill:#00aaaa" />
  <path d="m 1021.4125,608.32546 c -3.6635,0 -6.6375,2.9745 -6.6375,6.6375 0,3.663 2.9741,6.6376 6.6375,6.6376 0.9189,0 1.7927,-0.1859 2.5875,-0.525 l 0,-12.2375 c -0.7947,-0.3392 -1.6687,-0.5126 -2.5875,-0.5126 z" id="path3376" style="fill:#00aaaa" />
  <path d="m 248.95,578.41296 c -1.72592,0 -3.1375,1.3991 -3.1375,3.1251 0,1.726 1.41158,3.1124 3.1375,3.1124 1.72592,0 3.125,-1.3866 3.125,-3.1124 0,-1.7258 -1.39909,-3.1251 -3.125,-3.1251 z" id="path3404" style="fill:#00aaaa" />
  <path d="m 297.0875,375.08846 c -1.92121,0.1951 -3.4375,1.8399 -3.4375,3.8125 0,0.782 0.24585,1.5076 0.65,2.1125 0.003,0.01 -0.003,0.02 0,0.025 l -3.5,3.475 -13.1,0 -0.2875,0 -0.225,0.225 -15.35,15.3501 -0.2,0.2 0,0.3124 0,50.225 -59.125,59.1126 -0.2,0.2 0,0.2874 0,13.525 -7.375,7.3876 -0.2,0.2124 0,0.3 0,1.575 c -1.58803,0.2372 -2.8125,1.5963 -2.8125,3.25 0,1.8205 1.47952,3.3 3.3,3.3 1.82048,0 3.3,-1.4795 3.3,-3.3 0,-1.495 -0.99794,-2.7335 -2.3625,-3.1374 l 0,-1.4 7.375,-7.375 0.2,-0.2 0,-0.3 0,-13.525 59.1,-59.1126 0.225,-0.2 0,-0.2874 0,-50.275 14.95,-14.9251 13.075,0 0.2875,0 0.2,-0.2 3.725,-3.7 c 0.61324,0.4218 1.36207,0.6625 2.1625,0.6625 2.10419,0 3.8125,-1.6958 3.8125,-3.8 0,-2.1042 -1.70831,-3.8125 -3.8125,-3.8125 -0.13151,0 -0.24692,-0.013 -0.375,0 z" id="path3706" style="fill:#00aaaa" />
  <path d="m 719.46252,441.51306 c -3.41088,0 -6.17504,2.764 -6.17504,6.175 0,3.411 2.76416,6.1624 6.17504,6.1624 3.41088,0 6.16248,-2.7516 6.16248,-6.1624 0,-3.4108 -2.75168,-6.175 -6.16248,-6.175 z" id="path3576" style="fill:#00aaaa" />
  <path d="m 483.46252,374.12546 c -2.26964,0 -4.1,1.8553 -4.1,4.125 0,2.018 1.44644,3.6792 3.36248,4.025 l 0,6.6875 0,0.2875 0.225,0.225 7.8,7.8 0.21252,0.225 0.3,0 6.35,0 3.36248,3.3626 0,25.075 0,0.3124 0.225,0.2 42.06252,42.0876 0,17.7874 0,0.2876 0.2,0.2 6.55,6.55 0,146.6375 1.43748,0 0,-146.9501 0,-0.2874 -0.225,-0.2 -6.53752,-6.55 0,-17.7876 0,-0.2874 -0.2,-0.225 -42.08748,-42.075 0,-25.0376 0,-0.3124 -0.2,-0.2 -3.81252,-3.8126 -0.2,-0.2 -0.28748,0 -6.325,0 -7.425,-7.4 0,-6.4 c 1.94148,-0.328 3.425,-1.9917 3.425,-4.025 0,-2.2697 -1.84276,-4.125 -4.11248,-4.125 z" id="path3720" style="fill:#00aaaa" />
  <path d="m 838.4,439.58806 0,12.325 12.15,0 0,-12.325 -12.15,0 z" id="path3580" style="fill:#00aaaa" />
  <path d="m 297.725,313.33896 c -1.70966,0 -3.14251,1.124 -3.625,2.675 l -29.4125,0 -0.3125,0 -0.2,0.2 -38.9125,38.9 c -0.64539,-0.502 -1.45664,-0.8 -2.3375,-0.8 -2.10419,0 -3.8125,1.7083 -3.8125,3.8125 0,2.1042 1.70831,3.8125 3.8125,3.8125 2.10419,0 3.8125,-1.7083 3.8125,-3.8125 0,-0.698 -0.20974,-1.3498 -0.5375,-1.9125 l 38.775,-38.775 28.9625,0 c 0.1526,1.9644 1.78398,3.525 3.7875,3.525 2.1042,0 3.8125,-1.7083 3.8125,-3.8125 0,-2.1042 -1.7083,-3.8125 -3.8125,-3.8125 z" id="path3832" style="fill:#00aaaa" />
  <path d="m 396.6875,399.81296 c -2.1042,0 -3.8125,1.7083 -3.8125,3.8125 0,0.6472 0.16533,1.2788 0.45,1.8126 l -2.9375,2.9624 -0.225,0.2 0,0.2876 0,16.775 -0.8,1.3624 -0.1,0.175 0,0.1876 0,100.775 0,0.3 0.2125,0.2 35.48752,35.4874 0,5.2876 0,0.2874 0.2,0.2 9.45,9.425 c -0.23476,0.4377 -0.375,0.945 -0.375,1.475 0,1.7023 1.37272,3.075 3.075,3.075 1.70228,0 3.1,-1.3727 3.1,-3.075 0,-1.7023 -1.39776,-3.1 -3.1,-3.1 -0.65556,0 -1.26428,0.2109 -1.76252,0.5626 l -9.16248,-9.1626 0,-5.2624 0,-0.2876 -0.2,-0.225 -35.48752,-35.475 0,-100.3374 0.8,-1.3626 0.0875,-0.175 0,-0.175 0,-16.625 2.65,-2.65 c 0.66229,0.5563 1.51757,0.8876 2.45,0.8876 2.10419,0 3.8125,-1.7084 3.8125,-3.8126 0,-2.1042 -1.70831,-3.8125 -3.8125,-3.8125 z" id="path3644" style="fill:#00aaaa" />
  <path d="m 971.36252,608.32546 c -3.65952,0 -6.63752,2.9745 -6.63752,6.6375 0,3.663 2.978,6.6376 6.63752,6.6376 3.65952,0 6.62496,-2.9745 6.62496,-6.6376 0,-3.6631 -2.96152,-6.6375 -6.62496,-6.6375 z" id="path3380" style="fill:#00aaaa" />
  <path d="m 719.16252,375.75096 c -1.9862,0 -3.58752,1.6266 -3.58752,3.6125 0,1.9859 1.60132,3.5875 3.58752,3.5875 0.33,0 0.65812,-0.054 0.96248,-0.1375 l 23.31248,23.2875 0,34.5 0,0.725 0.52504,0.5376 20.32496,20.325 0.51252,0.5374 0.76252,0 17.11248,0 22.48752,22.475 0,8.25 c -1.37512,0.5075 -2.36252,1.813 -2.36252,3.3626 0,1.9846 1.61528,3.5874 3.6,3.5874 1.98472,0 3.58748,-1.6028 3.58748,-3.5874 0,-1.0941 -0.49292,-2.0551 -1.26248,-2.7126 l 0,-9.6124 0,-0.75 -0.51248,-0.5126 -23.55,-23.55 -0.51252,-0.5124 -0.73748,0 -17.11252,0 -19.3,-19.3 0,-34.5 0,-0.7376 -0.51252,-0.5124 -23.82496,-23.8126 c 0.0798,-0.2965 0.11248,-0.6156 0.11248,-0.9375 0,-1.9859 -1.62656,-3.6125 -3.61248,-3.6125 z" id="path3702" style="fill:#00aaaa" />
  <path d="m 955.61252,254.22646 c -6.1508,0 -11.13752,4.9867 -11.13752,11.1375 0,6.1508 4.98672,11.1375 11.13752,11.1375 6.1508,0 11.13748,-4.9866 11.13748,-11.1375 0,-6.1509 -4.98672,-11.1375 -11.13748,-11.1375 z" id="path3914" style="fill:#00aaaa" />
  <path d="m 754.2,5e-4 0,87.72496 -121.025,121.0375 -34.625,0 -0.28748,0 -0.22504,0.225 -13.46248,13.4625 -4.3,0 -3.38752,-3.3875 0,-5.725 0,-0.3 -0.2,-0.2 -2.88748,-2.9125 -0.225,-0.2 -0.28752,0 -8.81248,0 -4.1,-4.1 c 0.20052,-0.4122 0.33752,-0.8723 0.33752,-1.3625 0,-1.7259 -1.3866,-3.125 -3.11252,-3.125 -1.72592,0 -3.125,1.3991 -3.125,3.125 0,1.7259 1.39908,3.125 3.125,3.125 0.70956,0 1.33896,-0.2526 1.86252,-0.65 l 4.21248,4.2125 0.2,0.2 0.31248,0 8.8,0 2.47504,2.475 0,5.75 0,0.2875 0.22496,0.2 3.78752,3.7875 0.2,0.225 0.31248,0 4.87504,0 0.31248,0 0.2,-0.225 13.48752,-13.4625 34.58748,0 0.28748,0 0.22504,-0.2 121.46248,-121.4625 0.2,-0.2 0,-0.3125 0,-88.01246 -1.425,0 z" id="path4232" style="fill:#00aaaa" />
  <path d="m 580.21248,457.26306 c -1.70228,0 -3.07504,1.3977 -3.07504,3.1 0,1.7023 1.37276,3.075 3.07504,3.075 0.63832,0 1.24292,-0.2065 1.73748,-0.5376 l 0,5.4376 0,0.3124 0.225,0.2 21.65,21.6626 0,25.7374 -8.575,8.575 -0.2,0.225 0,0.2876 0,114.6625 1.425,0 0,-114.4001 8.58752,-8.55 0.2,-0.225 0,-0.2874 0,-26.3126 0,-0.3 -0.2,-0.2 -21.68752,-21.675 0,-7.775 a 0.71313,0.71313 0 0 0 -0.11248,-0.4 0.71313,0.71313 0 0 0 0,-0.025 c -0.24636,-1.4611 -1.52216,-2.5874 -3.05,-2.5874 z" id="path3568" style="fill:#00aaaa" />
  <path d="m 375.325,5e-4 0,23.3875 -8.025,8.025 -0.425,0.425 0,0.575 0,11.29996 c -0.89658,0.5554 -1.4875,1.5503 -1.4875,2.675 0,1.1247 0.59092,2.1012 1.4875,2.65 l 0,7.425 0,0.6 0.425,0.4 37.16252,37.1625 0,17.525 0,0.6 0.425,0.425 17.2,17.2 0,16.8 0,0.375 0.18748,0.3375 2.36252,4.075 0,8.8 0,0.5875 0.4,0.425 5.125,5.1 c -0.016,0.1269 -0.05,0.2439 -0.05,0.375 0,1.726 1.41156,3.1375 3.13748,3.1375 1.72592,0 3.125,-1.4115 3.125,-3.1375 0,-1.726 -1.39908,-3.125 -3.125,-3.125 -0.52356,0 -1.00184,0.1607 -1.43748,0.3875 l -4.325,-4.35 0,-8.6 0,-0.375 -0.2,-0.3375 -2.35,-4.0375 0,-17.0375 0,-0.5875 -0.41252,-0.425 -17.21248,-17.2 0,-17.5375 0,-0.575 -0.41252,-0.425 -37.175,-37.1625 0,-6.6 c 1.13027,-0.4683 1.9125,-1.5732 1.9125,-2.875 0,-1.3018 -0.78223,-2.4254 -1.9125,-2.9 l 0,-10.44996 8.05,-8.0375 0.4,-0.425 0,-0.6 0,-23.975 -2.85,0 z" id="path4320" style="fill:#00aaaa" />
  <path d="m 782.875,484.76296 c -3.41088,0 -6.2,2.7641 -6.2,6.175 0,3.4109 2.78912,6.1625 6.2,6.1625 3.41088,0 6.175,-2.7516 6.175,-6.1625 0,-3.4109 -2.76412,-6.175 -6.175,-6.175 z" id="path3504" style="fill:#00aaaa" />
  <path d="m 844.74996,464.50106 c -3.763,0 -6.81252,3.062 -6.81252,6.825 0,3.763 3.04952,6.8124 6.81252,6.8124 3.763,0 6.825,-3.0495 6.825,-6.8124 0,-3.7629 -3.0654,-6.825 -6.825,-6.825 z" id="path3556" style="fill:#00aaaa" />
  <path d="m 838.36252,489.55046 0,13.35 13.35,0 0,-3.25 24.61248,0 7.28752,7.2875 1.02496,1.025 1.5,0 92.98752,0 43.9625,43.9625 0.9125,-0.9125 0,-8.275 -40.86252,-40.8625 -1.05,-1.05 -1.47496,0 -93.01252,0 -7.28748,-7.2625 -1.03752,-1.05 -1.475,0 -26.08748,0 0,-2.9625 -13.35,0 z" id="path3496" style="fill:#00aaaa" />
  <path d="m 227.1875,611.83806 c -1.72591,0 -3.125,1.3991 -3.125,3.1249 0,1.7258 1.39909,3.1125 3.125,3.1125 1.72591,0 3.1375,-1.3866 3.1375,-3.1125 0,-1.7259 -1.41159,-3.1249 -3.1375,-3.1249 z" id="path3372" style="fill:#00aaaa" />
  <path d="m 683.38748,5e-4 0,96.38746 -18.46248,18.45 -22.95,0 -0.28752,0 -0.22496,0.225 -44.5,44.5 -17.82504,0 -0.28748,0 -0.2,0.2 -5.98748,6 c -0.49392,-1.0697 -1.57956,-1.8125 -2.83752,-1.8125 -1.72588,0 -3.11248,1.3991 -3.11248,3.125 0,1.7259 1.3866,3.1125 3.11248,3.1125 1.56432,0 2.84688,-1.1505 3.075,-2.65 l 6.55,-6.55 17.81252,0 0.28748,0 0.225,-0.2 44.5,-44.525 22.925,0 0.28748,0 0.22504,-0.2 18.9,-18.8875 0.2,-0.2 0,-0.3 0,-96.67496 -1.42504,0 z" id="path4246" style="fill:#00aaaa" />
  <path d="m 622.66252,253.92646 -0.31252,0.3125 -22.175,22.2 -9.71248,0 -4.58752,-4.5875 -0.31248,-0.3125 -0.45,0 -5.67504,0 -0.45,0 -0.31248,0.3125 -6.35,6.35 c -0.46364,-1.3607 -1.71008,-2.3375 -3.18752,-2.3375 -1.8724,0 -3.38748,1.5547 -3.38748,3.4875 0,1.9328 1.51508,3.5 3.38748,3.5 1.29068,0 2.39076,-0.7546 2.96252,-1.85 l 0.225,0.225 7.525,-7.55 4.83748,0 4.58752,4.5875 0.31248,0.3125 0.42504,0 10.61248,0 0.43752,0 0.31248,-0.3125 22.175,-22.1875 83.675,0 39.08752,39.1 0,1.05 c -1.22124,0.531 -2.1,1.7754 -2.1,3.225 0,1.9328 1.54004,3.5 3.41248,3.5 1.87244,0 3.38752,-1.5672 3.38752,-3.5 0,-1.6392 -1.08836,-3.0076 -2.56252,-3.3875 l 0,-1.3375 0,-0.4375 -0.31252,-0.3125 -39.73748,-39.7375 -0.31252,-0.3125 -0.43748,0 -84.55,0 -0.43748,0 z" id="path3918" style="fill:#00aaaa" />
  <path d="m 693.61252,5e-4 0,100.96246 -77.61252,77.6125 -30.28748,0 c -0.30836,-1.3991 -1.53172,-2.45 -3.02504,-2.45 -1.72592,0 -3.15,1.3866 -3.15,3.1125 0,1.7259 1.42408,3.125 3.15,3.125 1.46172,0 2.65972,-1.0079 3,-2.3625 l 30.6,0 0.28752,0 0.2,-0.2 78.06248,-78.0625 0.2,-0.2 0,-0.2875 0,-101.24996 -1.42496,0 z" id="path4242" style="fill:#00aaaa" />
  <path d="m 1013.9,262.22646 c -3.7119,0 -6.7,3.0131 -6.7,6.725 0,3.7119 2.9881,6.725 6.7,6.725 3.7119,0 6.7375,-3.0131 6.7375,-6.725 0,-3.7119 -3.0256,-6.725 -6.7375,-6.725 z" id="path3908" style="fill:#00aaaa" />
  <path d="m 223.525,289.91396 c -1.72592,0 -3.1125,1.4241 -3.1125,3.15 0,1.3849 0.91494,2.5274 2.1625,2.9375 l 0,6.4875 -29.625,29.6125 -25.775,0 -0.45,0 -0.3125,0.3125 -31.6875,31.6875 -36.0875,0 -0.45,0 -0.3125,0.3125 -10.5,10.5125 -0.3125,0.3125 0,0.425 0,12.0375 c 0,0.995 0.05765,1.8842 0.7375,2.575 0.67985,0.6908 1.58968,0.7625 2.6125,0.7625 l 42.2875,0 c 0.79415,0 1.16688,0.2501 1.425,0.5625 0.25812,0.3124 0.39618,0.7886 0.3625,1.3125 -0.0337,0.5239 -0.2472,1.0622 -0.5625,1.425 -0.3153,0.3628 -0.68078,0.55 -1.225,0.55 l -73.975,0 c -1.1876,0 -2.21584,0.547 -2.8375,1.325 -0.62166,0.778 -0.87636,1.7324 -0.8625,2.675 0.01386,0.9426 0.29297,1.8966 0.9125,2.6625 0.61953,0.7659 1.62828,1.3 2.7875,1.3 l 51.5375,0 c 0.60695,0 0.72622,0.1452 0.875,0.4 0.14878,0.2548 0.22907,0.7649 0.15,1.3376 -0.0791,0.5727 -0.31198,1.1858 -0.575,1.575 -0.26302,0.3892 -0.49097,0.45 -0.45,0.45 l -63.55,0 -0.45,0 -0.3125,0.3124 -7.1,7.1126 -0.3125,0.325 0,0.425 0,13.0124 c 0,0.5236 -0.13036,1.0287 0.1125,1.7626 0.12143,0.3669 0.4218,0.7796 0.825,1 0.4032,0.2204 0.81538,0.3 1.2625,0.3 l 58.225,0 c 0.78688,0 1.13822,0.2304 1.3875,0.55 0.24928,0.3196 0.38005,0.8054 0.3375,1.3624 -0.0426,0.557 -0.2699,1.1554 -0.5875,1.5376 -0.3176,0.3822 -0.6619,0.55 -1.1375,0.55 l -57.625,0 c -1.19184,0 -2.2306,0.5508 -2.85,1.3374 -0.6194,0.7866 -0.86377,1.7748 -0.85,2.725 0.01377,0.9502 0.3076,1.9005 0.925,2.675 0.6174,0.7745 1.61132,1.3376 2.775,1.3376 l 69.8625,0 c 0.42393,0 0.64654,0.1228 0.8875,0.4624 0.24096,0.3396 0.417,0.9143 0.425,1.475 0.008,0.5607 -0.14636,1.0984 -0.375,1.425 -0.22864,0.3266 -0.45251,0.4876 -0.9375,0.4876 l -69.35,0 c -1.17758,0 -2.1908,0.5642 -2.775,1.3624 -0.5842,0.7982 -0.79645,1.763 -0.7625,2.7 0.03395,0.937 0.30795,1.8585 0.8875,2.625 0.57955,0.7665 1.53777,1.3626 2.65,1.3626 l 77.8375,0 c 0.67439,0 1.01432,0.2106 1.275,0.5124 0.26068,0.3018 0.43218,0.7509 0.425,1.225 -0.007,0.4741 -0.20114,0.9366 -0.475,1.25 -0.27386,0.3134 -0.60615,0.5126 -1.225,0.5126 l -78.35,0 c -4.48853,0 -4.53614,8.2124 0,8.2124 l 90.4125,0 c 0.59764,0 0.85593,0.1902 1.0875,0.5126 0.23157,0.3224 0.37385,0.8479 0.35,1.4124 -0.0239,0.5645 -0.21898,1.1528 -0.4875,1.5126 -0.26852,0.3598 -0.53101,0.5124 -0.95,0.5124 l -90.4125,0 c -1.16368,0 -2.17108,0.5562 -2.775,1.3376 -0.60392,0.7814 -0.85,1.7298 -0.85,2.675 0,0.9452 0.24608,1.9186 0.85,2.7 0.60392,0.7814 1.61132,1.325 2.775,1.325 l 89.7375,0 c 0.76744,0 1.2118,0.2617 1.5375,0.6124 0.3257,0.3507 0.51519,0.8544 0.5375,1.375 0.0223,0.5206 -0.14272,1.0101 -0.4,1.3376 -0.25728,0.3275 -0.56063,0.5374 -1.1625,0.5374 l -90.15,0 c -1.18193,0 -2.22129,0.5485 -2.8375,1.3376 -0.61621,0.7891 -0.8625,1.7545 -0.8625,2.7124 0,0.9579 0.24629,1.936 0.8625,2.725 0.61621,0.789 1.65557,1.3626 2.8375,1.3626 l 90.0625,0 c 0.63434,0 0.95831,0.1992 1.225,0.525 0.26669,0.3258 0.42876,0.8186 0.425,1.3374 -0.004,0.5188 -0.17693,1.031 -0.45,1.3626 -0.27307,0.3316 -0.59388,0.5374 -1.2,0.5374 l -89.4625,0 c -1.18628,0 -2.21914,0.5675 -2.8125,1.375 -0.59336,0.8075 -0.82024,1.792 -0.8,2.75 0.02024,0.958 0.27161,1.9235 0.8625,2.7126 0.59089,0.7891 1.60356,1.3874 2.75,1.3874 l 89.7125,0 c 0.30613,0 0.43381,0.078 0.6375,0.4 0.20369,0.322 0.37919,0.8848 0.3875,1.45 0.008,0.5652 -0.15139,1.1185 -0.3375,1.4376 -0.18611,0.3191 -0.27443,0.3874 -0.5125,0.3874 l -131.925,0 0,2.1376 131.925,0 c 1.04619,0 1.91183,-0.6775 2.3625,-1.45 0.45067,-0.7725 0.63809,-1.6473 0.625,-2.5376 -0.0131,-0.8903 -0.2259,-1.793 -0.7125,-2.5624 -0.4866,-0.7694 -1.38625,-1.4126 -2.45,-1.4126 l -89.7125,0 c -0.4803,0 -0.76239,-0.1743 -1.025,-0.525 -0.26261,-0.3507 -0.43814,-0.9133 -0.45,-1.475 -0.01186,-0.5617 0.13091,-1.0928 0.375,-1.425 0.24409,-0.3322 0.53112,-0.5124 1.1,-0.5124 l 89.4625,0 c 1.19184,0 2.21071,-0.5364 2.85,-1.3126 0.63929,-0.7762 0.93055,-1.7419 0.9375,-2.7 0.007,-0.9581 -0.27218,-1.9305 -0.9125,-2.7124 -0.64032,-0.7819 -1.66856,-1.325 -2.875,-1.325 l -90.0625,0 c -0.57323,0 -0.87613,-0.1904 -1.1375,-0.525 -0.26137,-0.3346 -0.425,-0.8722 -0.425,-1.4126 0,-0.5404 0.16363,-1.0403 0.425,-1.375 0.26137,-0.3347 0.56427,-0.5374 1.1375,-0.5374 l 90.15,0 c 1.19609,0 2.22435,-0.5413 2.85,-1.3376 0.62565,-0.7963 0.8919,-1.8098 0.85,-2.7874 -0.0419,-0.9776 -0.39474,-1.9646 -1.1125,-2.7376 -0.71776,-0.773 -1.81262,-1.275 -3.1,-1.275 l -89.7375,0 c -0.54867,0 -0.83524,-0.1861 -1.0875,-0.5124 -0.25226,-0.3263 -0.4,-0.8433 -0.4,-1.375 0,-0.5317 0.14774,-1.0362 0.4,-1.3626 0.25226,-0.3264 0.53883,-0.5124 1.0875,-0.5124 l 90.4125,0 c 1.12214,0 2.0802,-0.595 2.6625,-1.375 0.5823,-0.78 0.88464,-1.7449 0.925,-2.7 0.0404,-0.9551 -0.17536,-1.9202 -0.7625,-2.7376 -0.58714,-0.8174 -1.62466,-1.4124 -2.825,-1.4124 l -90.4125,0 c -1.79956,0 -1.67593,-3.9376 0,-3.9376 l 78.35,0 c 1.17912,0 2.19812,-0.5039 2.85,-1.25 0.65188,-0.7461 0.94828,-1.6864 0.9625,-2.625 0.0142,-0.9386 -0.25814,-1.9048 -0.9125,-2.6624 -0.65436,-0.7576 -1.69081,-1.2376 -2.9,-1.2376 l -77.8375,0 c -0.42888,0 -0.6671,-0.1713 -0.925,-0.5124 -0.2579,-0.3411 -0.45544,-0.8852 -0.475,-1.425 -0.01956,-0.5398 0.136,-1.0531 0.3625,-1.3626 0.2265,-0.3095 0.45992,-0.475 1.0375,-0.475 l 69.35,0 c 1.14175,0 2.14204,-0.6029 2.7,-1.4 0.55796,-0.7971 0.76339,-1.7624 0.75,-2.7 -0.0134,-0.9376 -0.26864,-1.8658 -0.825,-2.65 -0.55636,-0.7842 -1.50782,-1.375 -2.625,-1.375 l -69.8625,0 c -0.54867,0 -0.84697,-0.2043 -1.1125,-0.5374 -0.26553,-0.3331 -0.42987,-0.8609 -0.4375,-1.3876 -0.0076,-0.5267 0.14717,-1.0164 0.4,-1.3374 0.25283,-0.321 0.54388,-0.525 1.15,-0.525 l 57.625,0 c 1.15113,0 2.14458,-0.5639 2.7875,-1.3376 0.64292,-0.7737 0.99983,-1.7409 1.075,-2.725 0.0752,-0.9841 -0.13512,-2.0137 -0.7875,-2.85 -0.65238,-0.8363 -1.76425,-1.3874 -3.075,-1.3874 l -58.225,0 -0.0625,0 c 0.0032,-0.1028 0,-0.3618 0,-0.9126 l 0,-12.5874 6.4875,-6.4626 63.1,0 c 1.02557,0 1.74155,-0.6846 2.225,-1.4 0.48345,-0.7154 0.78823,-1.5749 0.9125,-2.475 0.12427,-0.9001 0.0835,-1.8628 -0.4125,-2.7124 -0.496,-0.8496 -1.53398,-1.45 -2.725,-1.45 l -51.5375,0 c -0.55312,0 -0.8491,-0.1869 -1.1125,-0.5126 -0.2634,-0.3257 -0.44246,-0.8246 -0.45,-1.3375 -0.0075,-0.5129 0.14943,-0.9989 0.4,-1.3125 0.25057,-0.3136 0.55213,-0.5125 1.1625,-0.5125 l 73.975,0 c 1.16813,0 2.17621,-0.539 2.8375,-1.3 0.66129,-0.761 1.02485,-1.7256 1.0875,-2.7 0.0626,-0.9744 -0.1797,-1.9887 -0.85,-2.8 -0.6703,-0.8113 -1.77152,-1.3375 -3.075,-1.3375 l -42.2875,0 c -0.86076,0 -1.11635,-0.1291 -1.1,-0.1125 0.01635,0.0166 -0.1,-0.2417 -0.1,-1.0875 l 0,-11.5875 9.8625,-9.875 36.1,0 0.45,0 0.3125,-0.3125 31.6875,-31.6875 25.775,0 0.45,0 0.3125,-0.3125 30.2375,-30.2375 0.3125,-0.3125 0,-0.4375 0,-6.975 c 1.14586,-0.4633 1.9625,-1.588 1.9625,-2.9 0,-1.7259 -1.4241,-3.15 -3.15,-3.15 z" id="path3870" style="fill:#00aaaa" />
  <path d="m 346.6375,189.48846 c -1.72592,0 -3.1125,1.4116 -3.1125,3.1375 0,1.7259 1.38658,3.125 3.1125,3.125 1.72592,0 3.15,-1.399 3.15,-3.125 0,-1.726 -1.42409,-3.1375 -3.15,-3.1375 z" id="path4022" style="fill:#00aaaa" />
  <path d="m 507.9,412.82586 c -2.1042,0 -3.81252,1.7084 -3.81252,3.8126 0,2.081 1.6778,3.7755 3.75,3.8124 l 0,8.9126 0,0.2874 0.22504,0.2 37.58748,37.6126 0,17.5374 0,0.3 0.2,0.2126 6.575,6.575 0,147.9125 1.425,0 0,-148.2001 0,-0.3124 -0.2,-0.2 -6.575,-6.575 0,-17.55 0,-0.3 -0.225,-0.2126 -37.58748,-37.6 0,-8.8374 c 1.4364,-0.5459 2.45,-1.9473 2.45,-3.575 0,-2.1042 -1.70832,-3.8126 -3.81252,-3.8126 z" id="path3596" style="fill:#00aaaa" />
  <path d="m 359.7,399.91296 c -2.1042,0 -3.8125,1.6959 -3.8125,3.8001 0,0.9716 0.38868,1.8518 0.9875,2.525 l -4.175,4.1624 -0.225,0.2 0,0.3126 0,114 0,0.2874 0.225,0.2 2.9,2.925 0,18.4876 0,0.3 0.2,0.2124 12.4375,12.4126 0.2,0.225 0.2875,0 3.475,0 c 0.2933,1.8127 1.86702,3.2124 3.7625,3.2124 2.10419,0 3.8125,-1.7083 3.8125,-3.8124 0,-2.1041 -1.70831,-3.8126 -3.8125,-3.8126 -1.81772,0 -3.33212,1.2844 -3.7125,2.9876 l -3.2125,0 -12.0125,-11.9876 0,-18.5374 0,-0.2876 -0.225,-0.225 -2.9,-2.9 0,-113.4 4.0875,-4.075 c 0.51279,0.2569 1.1,0.4 1.7125,0.4 2.1042,0 3.8125,-1.7083 3.8125,-3.8124 0,-2.1041 -1.7083,-3.8001 -3.8125,-3.8001 z" id="path3638" style="fill:#00aaaa" />
  <path d="m 322.55,362.82546 c -1.8106,0 -3.32473,1.2694 -3.7125,2.9625 l -1.8375,0 -0.2875,0 -0.2,0.2 -5.7,5.6875 -29.175,0 -0.3125,0 -0.2,0.2 -25.1125,25.1375 -0.2,0.2 0,0.2875 0,50.1626 -59.2,59.175 -0.2,0.225 0,0.2874 0,13.175 -15.5125,15.525 -0.2,0.2 0,0.3 0,14.35 -6.2125,6.1876 c -0.47144,-0.2646 -1.00599,-0.425 -1.5875,-0.425 -1.82048,0 -3.3,1.4794 -3.3,3.3 0,1.8206 1.47952,3.3 3.3,3.3 1.82048,0 3.275,-1.4796 3.275,-3.3 0,-0.7115 -0.22061,-1.3736 -0.6,-1.9126 l 6.35,-6.35 0.2,-0.225 0,-0.2874 0,-14.325 15.5125,-15.5126 0.2,-0.225 0,-0.2874 0,-13.175 59.1875,-59.2 0.2125,-0.2 0,-0.3126 0,-50.1625 24.7,-24.6875 29.1875,0 0.2875,0 0.225,-0.2 5.6625,-5.6875 1.4875,0 c 0.28413,1.8235 1.85939,3.2375 3.7625,3.2375 2.1042,0 3.8125,-1.7083 3.8125,-3.8125 0,-2.1042 -1.7083,-3.8125 -3.8125,-3.8125 z" id="path3738" style="fill:#00aaaa" />
  <path d="m 713.74996,465.06346 0,13.525 13.525,0 0,-13.525 -13.525,0 z" id="path3554" style="fill:#00aaaa" />
  <path d="m 955.61252,377.66346 c -0.3844,0 -0.76484,0.037 -1.13752,0.075 -0.37268,0.038 -0.74952,0.076 -1.11248,0.15 -1.8104,0.3712 -3.46176,1.1895 -4.83752,2.325 -0.27952,0.2307 -0.54444,0.4812 -0.8,0.7375 -0.49952,0.501 -0.96724,1.0369 -1.36248,1.625 -0.007,0 0.006,0.01 0,0.013 -0.39664,0.5883 -0.74088,1.2145 -1.02504,1.875 0,0.01 0.006,0.019 0,0.025 -0.27348,0.6607 -0.50292,1.3568 -0.65,2.075 -0.1484,0.7251 -0.21248,1.4812 -0.21248,2.25 0,0.7688 0.0641,1.5249 0.21248,2.25 0.14838,0.7251 0.3684,1.4211 0.65,2.0875 0.42308,0.9996 0.99376,1.9246 1.67504,2.75 0.22692,0.275 0.46052,0.5231 0.71248,0.775 0.25556,0.2564 0.52048,0.5069 0.8,0.7375 0.82548,0.6813 1.73764,1.252 2.73752,1.675 0.6626,0.282 1.37528,0.489 2.1,0.6375 0.7298,0.1485 1.48116,0.225 2.25,0.225 0.76884,0 1.52036,-0.077 2.25,-0.225 0.71756,-0.147 1.4144,-0.3594 2.07496,-0.6375 0.99936,-0.4227 1.93744,-0.9941 2.76252,-1.675 0.55028,-0.4542 1.05832,-0.9622 1.51252,-1.5125 1.13548,-1.3758 1.94124,-3.0247 2.31248,-4.8375 0.14836,-0.725 0.225,-1.4811 0.225,-2.25 0,-0.7689 -0.0766,-1.525 -0.225,-2.25 -0.37124,-1.8128 -1.177,-3.4617 -2.31248,-4.8375 -0.4542,-0.5503 -0.96224,-1.0583 -1.51252,-1.5125 -1.37576,-1.1355 -3.02712,-1.9538 -4.83748,-2.325 -0.72964,-0.1483 -1.48116,-0.225 -2.25,-0.225 z" id="path3696" style="fill:#00aaaa" />
  <path d="m 743.86252,5e-4 0,82.54996 -117.41252,117.4125 -39.73748,0 -0.28752,0 -0.225,0.225 -1.93748,1.9375 c -0.46552,-0.2757 -0.99364,-0.45 -1.57504,-0.45 -1.72592,0 -3.15,1.3991 -3.15,3.125 0,1.7259 1.42408,3.1125 3.15,3.1125 1.72592,0 3.11252,-1.3866 3.11252,-3.1125 0,-0.6218 -0.20032,-1.189 -0.51252,-1.675 l 1.73752,-1.7375 39.71248,0 0.28752,0 0.2,-0.2 117.86248,-117.8375 0.2,-0.2125 0,-0.3 0,-82.83746 -1.42496,0 z" id="path4238" style="fill:#00aaaa" />
  <path d="m 995.725,146.38846 c -1.98468,0 -3.58752,1.6278 -3.58752,3.6125 0,1.9847 1.60284,3.5875 3.58752,3.5875 1.98468,0 3.58752,-1.6027 3.58752,-3.5875 0,-1.9848 -1.6028,-3.6125 -3.58752,-3.6125 z" id="path4074" style="fill:#00aaaa" />
  <path d="m 983.51252,633.02506 c -3.80644,0 -6.88752,3.1082 -6.88752,6.9125 0,0.021 -2e-4,0.041 0,0.062 l 13.78752,0 c 1.6e-4,-0.021 0,-0.041 0,-0.062 0,-3.8043 -3.09352,-6.9125 -6.9,-6.9125 z" id="path3348" style="fill:#00aaaa" />
  <path d="m 916.41252,550.25046 c -4.01744,0 -7.26252,3.2706 -7.26252,7.2876 0,4.017 3.24508,7.2624 7.26252,7.2624 4.01744,0 7.28748,-3.2455 7.28748,-7.2624 0,-4.0169 -3.27148,-7.2876 -7.28748,-7.2876 z" id="path3440" style="fill:#00aaaa" />
  <path d="m 8.9,112.30046 c -1.72591,0 -3.125,1.3991 -3.125,3.125 0,1.7259 1.39909,3.1125 3.125,3.1125 1.72591,0 3.1125,-1.3865 3.1125,-3.1125 0,-1.726 -1.38659,-3.125 -3.1125,-3.125 z" id="path4100" style="fill:#00aaaa" />
  <path d="m 729.4,482.88796 c -1.72588,0 -3.125,1.4116 -3.125,3.1375 0,1.7259 1.39912,3.125 3.125,3.125 1.72588,0 3.13748,-1.3991 3.13748,-3.125 0,-1.7259 -1.41152,-3.1375 -3.13748,-3.1375 z" id="path3510" style="fill:#00aaaa" />
  <path d="m 693.05,487.41296 c -1.72588,0 -3.11252,1.3991 -3.11252,3.125 0,1.7259 1.38664,3.1125 3.11252,3.1125 0.5022,0 0.97764,-0.1277 1.4,-0.3375 l 0.56252,0.9875 0,26.65 0,0.4375 0.31248,0.3375 37.26248,35.725 -0.18748,7.4375 0,0.425 0.275,0.3125 7.26248,8.0626 0.28752,0.3374 0.46248,0.025 9.56252,0.2625 6.11252,6.1125 0,11.5626 0,0.45 0.31248,0.3 6.725,6.7374 0.31252,0.3126 0.45,0 10.76248,0 8.1,8.1124 0.31248,0.3125 0.45,0 29.58752,0 0.45,0 0.31248,-0.3125 8.05,-8.05 72.06252,0 13.16252,13.175 0,15.2876 -11.68752,11.6875 3.025,0 10.48748,-10.4875 0.31252,-0.3125 0,-0.45 0,-16.1751 0,-0.45 -0.31252,-0.3125 -13.78748,-13.7875 -0.31252,-0.3125 -0.45,0 -72.95,0 -0.45,0 -0.31248,0.3125 -8.03752,8.0375 -28.7,0 -8.11248,-8.1 -0.31248,-0.3125 -0.45,0 -10.76252,0 -6.1,-6.1124 0,-11.5626 0,-0.45 -0.31252,-0.3125 -6.71248,-6.7 -0.31248,-0.3125 -0.42504,-0.025 -9.53748,-0.25 -6.66252,-7.4125 0.18752,-7.4625 0.0124,-0.475 -0.32496,-0.325 -37.26252,-35.775 0,-26.4875 0,-0.2875 -0.15,-0.25 -1.025,-1.7875 c 0.13832,-0.351 0.21248,-0.7251 0.21248,-1.125 0,-1.7259 -1.41156,-3.125 -3.13748,-3.125 z" id="path3500" style="fill:#00aaaa" />
  <path d="m 414.45,5e-4 0,70.21246 0,0.2875 0.2,0.225 8.65,8.6375 0,31.35 0,0.2125 0.0875,0.15 2.45,4.2375 0,30.125 0,0.2875 0.2,0.225 6.125,6.125 c -1.19344,0.4467 -2.05,1.5947 -2.05,2.9375 0,1.7259 1.41156,3.125 3.13748,3.125 1.72592,0 3.125,-1.3991 3.125,-3.125 0,-1.4228 -0.95032,-2.6181 -2.25,-3 l -6.86248,-6.85 0,-30.05 0,-0.2 -0.11252,-0.1625 -2.425,-4.2375 0,-31.4625 0,-0.2875 -0.225,-0.2 -8.625,-8.65 0,-69.91246 -1.425,0 z" id="path4316" style="fill:#00aaaa" />
  <path d="m 1019.425,469.58896 0,13.275 4.575,0 0,-13.275 -4.575,0 z" id="path3544" style="fill:#00aaaa" />
  <path d="m 313.825,5e-4 23.1625,23.175 0,33.92496 0,0.3 0.225,0.2 51.0125,51.025 0,11.9625 0,0.2875 0.225,0.225 7.2625,7.2625 0,7.2 0,0.2875 0.2125,0.225 5.91252,5.9125 0,19.7875 0,0.3 0.225,0.2125 3.65,3.65 c -0.2148,0.4237 -0.35,0.8916 -0.35,1.4 0,1.7259 1.38656,3.125 3.11248,3.125 1.72592,0 3.125,-1.3991 3.125,-3.125 0,-1.7259 -1.39908,-3.1125 -3.125,-3.1125 -0.69832,0 -1.33076,0.239 -1.85,0.625 l -3.36248,-3.375 0,-19.7875 0,-0.2875 -0.2,-0.2 -5.92502,-5.925 0,-7.2 0,-0.2875 -0.2,-0.225 -7.2875,-7.2875 0,-11.9375 0,-0.2875 -0.2,-0.225 -51.025,-51.0375 0,-33.88746 0,-0.3125 -0.2125,-0.2 -22.375,-22.3875 -2.0125,0 z" id="path4328" style="fill:#00aaaa" />
  <path d="m 535.96252,5e-4 0,23.1875 -18.58752,0 -1.075,0 0,1.075 0,55.46246 -16.625,16.625 -0.31248,0.3125 0,0.4375 0,36.2625 0,0.4375 0.31248,0.3125 6.36248,6.375 c -1.12004,0.4792 -1.9,1.6056 -1.9,2.9 0,1.726 1.39916,3.1125 3.12504,3.1125 1.72588,0 3.11248,-1.3865 3.11248,-3.1125 0,-0.6402 -0.20812,-1.239 -0.53752,-1.7375 a 1.07144,1.07144 0 0 0 -0.31248,-0.7125 l -8.01248,-8 0,-35.4125 16.6,-16.6 0.32496,-0.3125 0,-0.45 0,-54.83746 18.58752,0 1.075,0 0,-1.0625 0,-24.2625 -2.13748,0 z" id="path4288" style="fill:#00aaaa" />
  <path d="m 835.28748,88.16246 0,13.4375 13.23752,0 0,-13.4375 -13.23752,0 z" id="path4114" style="fill:#00aaaa" />
  <path d="m 868.31252,5e-4 8.03748,8.0375 0,364.88746 -8.75,8.75 -32.7,0 -0.41252,0 -0.33748,0.3125 -5.325,5.325 -0.31248,0.3125 0,0.45 0,14.4 -2.83752,0 c -0.62196,-1.0712 -1.76316,-1.8124 -3.08752,-1.8124 -1.98476,0 -3.58748,1.6277 -3.58748,3.6124 0,1.9847 1.60272,3.5876 3.58748,3.5876 1.8684,0 3.38956,-1.4278 3.56252,-3.25 l 3.425,0 1.075,0 0,-1.075 0,-15.0126 4.7,-4.7125 32.68748,0 0.45,0 0.31252,-0.3 9.375,-9.4125 0.31248,-0.3125 0,-0.4375 0,-365.76246 0,-0.4375 L 878.175,6.838 871.33748,5e-4 l -3.02496,0 z" id="path4196" style="fill:#00aaaa" />
  <path d="m 545.875,238.96396 c -1.72592,0 -3.125,1.3866 -3.125,3.1125 0,1.7259 1.39908,3.125 3.125,3.125 1.72592,0 3.11248,-1.399 3.11248,-3.125 0,-1.726 -1.38656,-3.1125 -3.11248,-3.1125 z" id="path3944" style="fill:#00aaaa" />
  <path d="m 410.725,43.60046 c -1.72592,0 -3.11248,1.3991 -3.11248,3.125 0,1.7259 1.38656,3.1125 3.11248,3.1125 1.72592,0 3.125,-1.3865 3.125,-3.1125 0,-1.726 -1.39908,-3.125 -3.125,-3.125 z" id="path4150" style="fill:#00aaaa" />
  <path d="m 827,38.213 c -1.98472,0 -3.58748,1.6278 -3.58748,3.61246 0,1.98466 1.60276,3.5875 3.58748,3.5875 1.98472,0 3.6,-1.6028 3.6,-3.5875 0,-1.9847 -1.61532,-3.61246 -3.6,-3.61246 z" id="path4152" style="fill:#00aaaa" />
  <path d="m 719.41252,293.55146 c -1.70956,0.1793 -3.02504,1.688 -3.02504,3.5 0,1.9328 1.51508,3.5 3.38752,3.5 1.87244,0 3.38752,-1.5672 3.38752,-3.5 0,-1.9328 -1.51508,-3.5 -3.38752,-3.5 -0.117,0 -0.24856,-0.012 -0.36248,0 z" id="path3860" style="fill:#00aaaa" />
  <path d="m 280.5375,46.91246 a 1.06969,1.06969 0 0 0 -0.075,0.013 1.06969,1.06969 0 0 0 -0.8,0.575 c -1.17416,0.4474 -2.0125,1.5667 -2.0125,2.9 0,1.2833 0.77029,2.3704 1.875,2.85 l 0,3.1875 0,0.45 0.3125,0.3125 56,55.9875 0,26.475 0,0.45 0.3125,0.3125 3.825,3.85 0.3125,0.3125 0.45,0 2.475,0 c 0.53909,0.9311 1.53185,1.5625 2.6875,1.5625 1.72592,0 3.125,-1.3991 3.125,-3.125 0,-1.7259 -1.39908,-3.1125 -3.125,-3.1125 -1.5254,0 -2.77646,1.093 -3.05,2.5375 l -1.6625,0 -3.2125,-3.2375 0,-26.4625 0,-0.45 -0.3125,-0.3125 -56,-55.975 0,-2.65 c 1.29168,-0.3849 2.25,-1.5491 2.25,-2.9625 0,-1.4859 -1.05664,-2.7215 -2.45,-3.0375 a 1.06969,1.06969 0 0 0 -0.925,-0.45 z" id="path4146" style="fill:#00aaaa" />
  <path d="m 300.9625,472.83846 c -2.10419,0 -3.8125,1.7082 -3.8125,3.8124 0,2.1042 1.70831,3.8126 3.8125,3.8126 2.10419,0 3.8125,-1.7084 3.8125,-3.8126 0,-2.1042 -1.7083,-3.8124 -3.8125,-3.8124 z" id="path3534" style="fill:#00aaaa" />
  <path d="m 826.26252,70.04996 c -1.98416,0 -3.58752,1.6028 -3.58752,3.5875 0,1.9847 1.60332,3.5875 3.58752,3.5875 1.98936,0 3.61248,-1.6027 3.61248,-3.5875 0,-1.9848 -1.62316,-3.5875 -3.61248,-3.5875 z" id="path4128" style="fill:#00aaaa" />
  <path d="m 483.3,176.12596 c -1.72592,0 -3.11252,1.3866 -3.11252,3.1125 0,1.7259 1.3866,3.125 3.11252,3.125 1.72592,0 3.125,-1.3991 3.125,-3.125 0,-1.7259 -1.39912,-3.1125 -3.125,-3.1125 z" id="path4052" style="fill:#00aaaa" />
  <path d="m 196.65,243.61396 c -1.72591,0 -3.1125,1.3991 -3.1125,3.125 0,1.7259 1.38659,3.1125 3.1125,3.1125 1.72591,0 3.125,-1.3865 3.125,-3.1125 0,-1.726 -1.39909,-3.125 -3.125,-3.125 z" id="path3940" style="fill:#00aaaa" />
  <path d="m 769.46252,506.77546 c -1.72588,0 -3.12504,1.3991 -3.12504,3.125 0,1.7259 1.39916,3.1125 3.12504,3.1125 1.72588,0 3.13748,-1.3866 3.13748,-3.1125 0,-1.7259 -1.4116,-3.125 -3.13748,-3.125 z" id="path3480" style="fill:#00aaaa" />
  <path d="m 456.925,474.46346 c -1.986,0 -3.58748,1.6265 -3.58748,3.6124 0,1.9859 1.60148,3.5876 3.58748,3.5876 1.986,0 3.6,-1.6016 3.6,-3.5876 0,-1.986 -1.61404,-3.6124 -3.6,-3.6124 z" id="path3526" style="fill:#00aaaa" />
  <path d="m 901.15,254.22646 c -6.15088,0 -11.13748,4.9867 -11.13748,11.1375 0,6.1508 4.9866,11.1375 11.13748,11.1375 6.15088,0 11.15,-4.9866 11.15,-11.1375 0,-6.1509 -4.9992,-11.1375 -11.15,-11.1375 z" id="path3916" style="fill:#00aaaa" />
  <path d="m 217.025,296.77646 c -1.72592,0 -3.125,1.3991 -3.125,3.125 0,1.7259 1.39908,3.125 3.125,3.125 1.72592,0 3.1375,-1.3991 3.1375,-3.125 0,-1.7259 -1.41159,-3.125 -3.1375,-3.125 z" id="path3854" style="fill:#00aaaa" />
  <path d="m 321.8125,251.38896 c -1.72592,0 -3.1125,1.4241 -3.1125,3.15 0,0.7208 0.25364,1.36 0.6625,1.8875 l -8.2875,8.2875 -30.4125,0 -0.2875,0 -0.225,0.2 -14.7125,14.7125 -13.6125,0 -0.2875,0 -0.2,0.2 -60.3875,60.3875 -6.75,0 c -0.32819,-1.383 -1.57139,-2.425 -3.05,-2.425 -1.72591,0 -3.125,1.4116 -3.125,3.1375 0,1.7259 1.39909,3.1125 3.125,3.1125 1.47861,0 2.72181,-1.0216 3.05,-2.4 l 7.0625,0 0.2875,0 0.2,-0.225 60.3875,-60.3625 13.6125,0 0.3,0 0.2,-0.2 14.7,-14.7125 30.4125,0 0.3125,0 0.2,-0.2125 8.5875,-8.5875 c 0.40974,0.1975 0.86381,0.3125 1.35,0.3125 1.72591,0 3.125,-1.3865 3.125,-3.1125 0,-1.726 -1.39909,-3.15 -3.125,-3.15 z" id="path3922" style="fill:#00aaaa" />
  <path d="m 334.525,289.93896 -0.3125,0.3125 -7.8,7.8 -0.3125,0.3125 0,0.45 0,37.6375 -13.6375,13.6375 -13.575,0 -0.45,0 -0.3,0.3125 -2.975,2.9625 -21.7,0 -0.45,0 -0.3,0.3125 -35.675,35.675 -0.3125,0.3125 0,0.4375 0,49.9876 -58.6125,58.625 -0.3375,0.3124 0,0.4376 0,13.3124 -25.375,25.35 -0.3125,0.3376 0,0.425 0,24.175 0,0.45 0.3125,0.3124 24.6,24.6126 0,13.4249 -3.875,3.85 -8.2,0 -30.8,-30.8 0,-58.3375 0,-0.4374 -0.3125,-0.3126 -3.1875,-3.1874 -0.3125,-0.3126 -0.4125,0 -129.9,0 0,2.1376 129.45,0 2.5375,2.5624 0,58.3375 0,0.45 0.3125,0.3125 31.425,31.4126 0.3125,0.3124 0.4375,0 9.1,0 0.4375,0 0.3125,-0.3124 4.5,-4.4751 0.3125,-0.3125 0,-0.45 0,-14.3 0,-0.45 -0.3125,-0.3124 -24.6,-24.6 0,-23.325 25.3875,-25.3876 0.3125,-0.3124 0,-0.425 0,-13.275 58.625,-58.625 0.3125,-0.3126 0,-0.45 0,-49.975 35.05,-35.05 21.7,0 0.425,0 0.3125,-0.3125 2.9875,-2.9625 13.5625,0 0.45,0 0.3125,-0.3125 14.2625,-14.2625 0.3125,-0.3125 0,-0.45 0,-37.6375 7.175,-7.175 49.85,0 2.875,2.875 0,24.3625 0,0.2875 0.125,0.25 1.725,2.9625 0.3,0.525 0.625,0 98.1875,0 2.76252,2.7625 0.31248,0.3125 0.43752,0 23.08748,0 0.45,0 0.31252,-0.3125 8.06248,-8.0625 0.33752,-0.3375 0,-0.4125 0,-7.65 7.4,-7.425 19.4,0 4.37496,4.375 0.31252,0.3125 0.43748,0 8.82504,0 3.26248,3.25 0.3,0.3125 0.45,0 6.71248,0 3.13752,3.1625 c -0.40392,0.5762 -0.65,1.2839 -0.65,2.05 0,1.9328 1.51508,3.5 3.38752,3.5 1.87244,0 3.38748,-1.5672 3.38748,-3.5 0,-1.9328 -1.51508,-3.5 -3.38748,-3.5 -0.34992,0 -0.68264,0.061 -1,0.1625 l -3.7,-3.7 -0.31252,-0.3125 -0.43748,0 -6.68752,0 -3.25,-3.25 -0.33752,-0.3125 -0.42496,0 -8.82504,0 -4.38748,-4.375 -0.31252,-0.3125 -0.45,0 -20.22496,0 -0.45,0 -0.31252,0.3125 -8.06252,8.075 -0.31248,0.3125 0,0.4375 0,7.625 -7.46248,7.4375 -22.2,0 -2.76252,-2.7625 -0.31252,-0.3125 -0.45,0 -98.01248,0 -1.25,-2.1625 0,-24.525 0,-0.45 -0.3125,-0.3125 -3.5,-3.5 -0.3125,-0.3125 -0.45,0 -50.7375,0 -0.4375,0 z" id="path3868" style="fill:#00aaaa" />
  <path d="m 54.0625,216.96396 c -1.72591,0 -3.1125,1.3991 -3.1125,3.125 0,1.7259 1.38659,3.1125 3.1125,3.1125 1.72591,0 3.125,-1.3865 3.125,-3.1125 0,-1.726 -1.39909,-3.125 -3.125,-3.125 z" id="path3978" style="fill:#00aaaa" />
  <path d="m 321.725,176.92646 c -1.72591,0 -3.1125,1.3866 -3.1125,3.1125 0,0.6296 0.19222,1.2095 0.5125,1.7 l -8.2875,8.2875 -57.85,0 -0.2875,0 -0.225,0.225 -15.35,15.35 -176.0875,0 -0.7125,0 0,0.7125 0,35.675 -60.325,0 0,1.425 61.0375,0 0.7125,0 0,-0.7125 0,-35.675 175.6625,0 0.2875,0 0.2,-0.2 15.4,-15.375 57.825,0 0.2875,0 0.225,-0.2 8.5125,-8.5375 c 0.46736,0.2784 0.9915,0.45 1.575,0.45 1.72592,0 3.15,-1.399 3.15,-3.125 0,-1.726 -1.42408,-3.1125 -3.15,-3.1125 z" id="path4042" style="fill:#00aaaa" />
  <path d="m 432.61252,509.40046 c -1.70228,0 -3.075,1.3728 -3.075,3.075 0,1.7022 1.37272,3.1 3.075,3.1 1.70228,0 3.075,-1.3977 3.075,-3.1 0,-1.7023 -1.37276,-3.075 -3.075,-3.075 z" id="path3476" style="fill:#00aaaa" />
  <path d="m 248.4125,53.38746 c -1.72591,0 -3.1125,1.3866 -3.1125,3.1125 0,1.7259 1.38659,3.125 3.1125,3.125 0.74326,0 1.41473,-0.2803 1.95,-0.7125 l 51.8875,51.875 0,26.0875 0,0.45 0.3375,0.3125 3.725,3.7375 c -0.336,0.4978 -0.5375,1.0903 -0.5375,1.7375 0,1.726 1.39908,3.125 3.125,3.125 1.72592,0 3.1125,-1.399 3.1125,-3.125 0,-1.726 -1.38658,-3.1125 -3.1125,-3.1125 -0.28103,0 -0.55367,0.068 -0.8125,0.1375 l -3.7,-3.7 0,-26.075 0,-0.45 -0.3125,-0.3125 -52.5875,-52.5875 c 0.0281,-0.1687 0.05,-0.3356 0.05,-0.5125 0,-1.7259 -1.39908,-3.1125 -3.125,-3.1125 z" id="path4142" style="fill:#00aaaa" />
  <path d="m 798.61252,284.35146 c -1.70956,0.1793 -3.06252,1.688 -3.06252,3.5 0,0.5968 0.16976,1.1334 0.425,1.625 l -2.13752,2.1125 -0.2,0.2 0,0.2875 0,8.1875 -3.58748,3.5875 -22.81252,0 -0.3,0 -0.21248,0.2 -19.575,19.5875 -73.1,0 -26.45,-26.45 -0.225,-0.2 -0.28752,0 -5.46248,0 c -0.42432,-1.4312 -1.71136,-2.475 -3.23752,-2.475 -1.87244,0 -3.38748,1.5672 -3.38748,3.5 0,1.9328 1.51504,3.4875 3.38748,3.4875 1.74052,0 3.15704,-1.3444 3.35,-3.0875 l 5.07504,0 26.42496,26.45 0.22504,0.2 0.28748,0 73.675,0 0.31248,0 0.2,-0.2 19.61252,-19.5875 22.81252,0 0.28748,0 0.2,-0.2 4.01252,-4.0125 0.2,-0.2 0,-0.2875 0,-8.1875 1.8,-1.8 c 0.57556,0.4653 1.31228,0.7625 2.1,0.7625 1.8724,0 3.38748,-1.5672 3.38748,-3.5 0,-1.9328 -1.51508,-3.5 -3.38748,-3.5 -0.11704,0 -0.236,-0.012 -0.35,0 z" id="path3876" style="fill:#00aaaa" />
</svg>
  